<svg width="18" height="17" viewBox="0 0 18 17" fill="none" xmlns="http://www.w3.org/2000/svg">
<path d="M12 14C11.6951 14.6083 11.2575 15.1132 10.731 15.4643C10.2045 15.8153 9.60759 16 9 16C8.39241 16 7.79547 15.8153 7.26897 15.4643C6.74247 15.1132 6.30487 14.6083 6 14M14.3333 5.80085C14.3333 4.52759 13.7714 3.30647 12.7712 2.40614C11.771 1.5058 10.4145 1 9 1C7.58551 1 6.22896 1.5058 5.22876 2.40614C4.22857 3.30647 3.66667 4.52759 3.66667 5.80085C3.66667 11.4018 1 13.0021 1 13.0021H17C17 13.0021 14.3333 11.4018 14.3333 5.80085Z" stroke="#111111" stroke-width="1.5" stroke-linecap="round" stroke-linejoin="round"/>
</svg>
