<svg width="18" height="18" viewBox="0 0 18 18" fill="none" xmlns="http://www.w3.org/2000/svg">
<path d="M10.8502 4.61927C10.6959 4.77664 10.6095 4.98822 10.6095 5.20859C10.6095 5.42895 10.6959 5.64053 10.8502 5.79791L12.1972 7.14492C12.3546 7.29918 12.5662 7.38558 12.7865 7.38558C13.0069 7.38558 13.2185 7.29918 13.3758 7.14492L16.5498 3.97102C16.9731 4.90651 17.1013 5.9488 16.9172 6.95899C16.7331 7.96918 16.2456 8.89928 15.5195 9.62535C14.7935 10.3514 13.8633 10.839 12.8532 11.023C11.843 11.2071 10.8007 11.0789 9.86519 10.6556L4.04776 16.473C3.71284 16.8079 3.25858 16.9961 2.78493 16.9961C2.31128 16.9961 1.85703 16.8079 1.5221 16.473C1.18718 16.1381 0.999023 15.6838 0.999023 15.2102C0.999023 14.7365 1.18718 14.2823 1.5221 13.9474L7.33953 8.12993C6.9162 7.19444 6.78803 6.15214 6.97208 5.14196C7.15614 4.13177 7.64369 3.20166 8.36976 2.47559C9.09583 1.74952 10.0259 1.26197 11.0361 1.07791C12.0463 0.893853 13.0886 1.02203 14.0241 1.44536L10.8586 4.61085L10.8502 4.61927Z" stroke="#111111" stroke-width="1.5" stroke-linecap="round" stroke-linejoin="round"/>
</svg>
