<svg width="18" height="14" viewBox="0 0 18 14" fill="none" xmlns="http://www.w3.org/2000/svg">
<path fill-rule="evenodd" clip-rule="evenodd" d="M16.3636 14C17.2674 14 18 13.2165 18 12.25V9.52707L17.5915 9.27436C16.8373 8.80775 16.3636 7.94847 16.3636 7C16.3636 6.05153 16.8373 5.19225 17.5915 4.72564L18 4.47293V1.75C18 0.783502 17.2674 0 16.3636 0H1.63636C0.732625 0 0 0.783502 0 1.75V4.47293L0.408497 4.72564C1.16274 5.19225 1.63636 6.05153 1.63636 7C1.63636 7.94847 1.16274 8.80775 0.408497 9.27436L0 9.52707V12.25C0 13.2165 0.732625 14 1.63636 14H16.3636ZM16.3639 3.4995C15.3485 4.31406 14.7275 5.59953 14.7275 6.99997C14.7275 8.40041 15.3485 9.68588 16.3639 10.5004V12.25H1.63662V10.5004C2.65198 9.68588 3.27298 8.40041 3.27298 6.99997C3.27298 5.59953 2.65198 4.31406 1.63662 3.4995V1.74997H16.3639V3.4995Z" fill="#111111"/>
<path fill-rule="evenodd" clip-rule="evenodd" d="M10.636 13.125C11.0879 13.125 11.4542 12.7332 11.4542 12.25C11.4542 11.7668 11.0879 11.375 10.636 11.375C10.1842 11.375 9.81785 11.7668 9.81785 12.25C9.81785 12.7332 10.1842 13.125 10.636 13.125Z" fill="#111111"/>
<path fill-rule="evenodd" clip-rule="evenodd" d="M10.636 10.5C11.0879 10.5 11.4542 10.1082 11.4542 9.625C11.4542 9.14175 11.0879 8.75 10.636 8.75C10.1842 8.75 9.81785 9.14175 9.81785 9.625C9.81785 10.1082 10.1842 10.5 10.636 10.5Z" fill="#111111"/>
<path fill-rule="evenodd" clip-rule="evenodd" d="M10.636 7.875C11.0879 7.875 11.4542 7.48325 11.4542 7C11.4542 6.51675 11.0879 6.125 10.636 6.125C10.1842 6.125 9.81785 6.51675 9.81785 7C9.81785 7.48325 10.1842 7.875 10.636 7.875Z" fill="#111111"/>
<path fill-rule="evenodd" clip-rule="evenodd" d="M10.636 5.25C11.0879 5.25 11.4542 4.85825 11.4542 4.375C11.4542 3.89175 11.0879 3.5 10.636 3.5C10.1842 3.5 9.81785 3.89175 9.81785 4.375C9.81785 4.85825 10.1842 5.25 10.636 5.25Z" fill="#111111"/>
<path fill-rule="evenodd" clip-rule="evenodd" d="M10.636 2.625C11.0879 2.625 11.4542 2.23325 11.4542 1.75C11.4542 1.26675 11.0879 0.875 10.636 0.875C10.1842 0.875 9.81785 1.26675 9.81785 1.75C9.81785 2.23325 10.1842 2.625 10.636 2.625Z" fill="#111111"/>
</svg>
