<?xml version="1.0" encoding="UTF-8"?>
<svg id="Layer_2" data-name="Layer 2" xmlns="http://www.w3.org/2000/svg" viewBox="0 0 90 90">
  <defs>
    <style>
      .cls-1 {
        fill: #fff;
      }
    </style>
  </defs>
  <g id="Layer_1-2" data-name="Layer 1">
    <g>
      <path class="cls-1" d="m45,90C20.19,90,0,69.81,0,45S20.19,0,45,0s45,20.19,45,45-20.19,45-45,45Zm0-88.26C21.14,1.74,1.74,21.14,1.74,45s19.41,43.26,43.26,43.26,43.26-19.41,43.26-43.26S68.86,1.74,45,1.74Z"/>
      <g>
        <path class="cls-1" d="m62.21,64.63H25.45c-.71,0-1.39-.29-1.88-.81-.49-.51-.75-1.21-.72-1.92l1.74-36.76c.07-1.39,1.21-2.48,2.6-2.48h33.28c1.39,0,2.54,1.09,2.6,2.48l1.74,36.76c.03.71-.23,1.41-.72,1.92-.49.52-1.17.81-1.88.81Zm-34.03-5.21h31.3l-1.49-31.55h-28.31l-1.49,31.55Z"/>
        <path class="cls-1" d="m45,45.4c-5.38,0-9.76-4.38-9.76-9.76v-3.8h3.47v3.8c0,3.46,2.82,6.28,6.28,6.28s6.28-2.82,6.28-6.28v-3.8h3.47v3.8c0,5.38-4.38,9.76-9.75,9.76Z"/>
      </g>
    </g>
  </g>
</svg>