<?xml version="1.0" encoding="UTF-8"?>
<svg id="Layer_2" data-name="Layer 2" xmlns="http://www.w3.org/2000/svg" xmlns:xlink="http://www.w3.org/1999/xlink" viewBox="0 0 90 90">
  <defs>
    <style>
      .cls-1 {
        fill: #f9d2a0;
      }

      .cls-1, .cls-2, .cls-3, .cls-4 {
        stroke: #000;
      }

      .cls-1, .cls-2, .cls-4 {
        stroke-width: 1.13px;
      }

      .cls-1, .cls-4 {
        stroke-miterlimit: 10;
      }

      .cls-5 {
        clip-path: url(#clippath);
      }

      .cls-2, .cls-6 {
        fill: none;
      }

      .cls-2, .cls-3 {
        stroke-linecap: round;
        stroke-linejoin: round;
      }

      .cls-3 {
        stroke-width: 2.42px;
      }

      .cls-4 {
        fill: #fff;
      }

      .cls-7 {
        fill: #ff0;
      }
    </style>
    <clipPath id="clippath">
      <circle class="cls-6" cx="45" cy="45" r="45"/>
    </clipPath>
  </defs>
  <g id="Layer_1-2" data-name="Layer 1">
    <g>
      <circle class="cls-7" cx="45" cy="45" r="45"/>
      <g class="cls-5">
        <path class="cls-4" d="m44.59,61.56c-12.47,0-23.06,8.03-26.9,19.2,0,13.8,17.03,23.31,27.3,23.31s26.66-9.52,26.66-22.83c-3.69-11.42-14.41-19.69-27.06-19.69Z"/>
      </g>
      <path class="cls-1" d="m50.43,68.16c0,3.28-2.66,5.94-5.94,5.94s-5.94-2.66-5.94-5.94"/>
      <path class="cls-1" d="m26.11,53.75c-2.57,0-4.65-2.08-4.65-4.65s2.08-4.65,4.65-4.65"/>
      <path class="cls-1" d="m63.01,53.75c2.57,0,4.65-2.08,4.65-4.65s-2.08-4.65-4.65-4.65"/>
      <path class="cls-1" d="m63.52,50.26c0,10.51-8.52,19.04-19.04,19.04s-19.04-8.52-19.04-19.04v-11.31c0-5.69,5.62-16.42,19.04-16.42s19.04,10.49,19.04,16.42v11.31Z"/>
      <path class="cls-3" d="m64.82,46.29c-10.49-4.35-10.25-13.8-10.25-13.8,0,0-2.79,5.46-11.93,8.29-10.91,3.39-18.49-2.34-18.49-2.34,0,0,2.21-17.78,20.34-17.54,0,0,9.15.43,14.82,5.65s5.51,11.89,5.51,11.89v7.85Z"/>
      <g>
        <circle cx="36.34" cy="48.81" r="2.52"/>
        <circle cx="52.63" cy="48.81" r="2.52"/>
      </g>
      <path class="cls-2" d="m49.29,59.7c-.65,1.16-2.15,2.32-4.81,2.32s-4.16-1.16-4.81-2.32"/>
    </g>
  </g>
</svg>