<svg width="212" height="40" viewBox="0 0 212 40" fill="none" xmlns="http://www.w3.org/2000/svg">
<path d="M18.8759 15.7015H26.4837L25.7308 20.6236H18.1231L15.947 34.8489H10.0532L15.3241 0.393555H30.9151L30.1622 5.31563H20.465L18.8759 15.7015Z" fill="#EB402E"/>
<path d="M65.7213 34.8489H59.7738L59.7122 28.5981H52.4791L50.5049 34.8489H45.0933L56.365 0.393555H64.9913L65.7213 34.8489ZM53.9447 23.9222H59.6238L59.4497 6.49707L53.9447 23.9222Z" fill="#EB402E"/>
<path d="M81.7152 0C87.4481 0 89.9136 3.14993 89.07 8.66315L88.9046 9.74578H83.3321L83.5504 8.3186C83.9268 5.85735 82.998 4.92208 81.1232 4.92208C79.2479 4.92208 78.0335 5.85735 77.657 8.3186C76.5724 15.4064 87.8888 16.7352 86.3822 26.5801C85.5387 32.0929 82.0565 35.2433 76.2703 35.2433C70.484 35.2433 67.9653 32.0929 68.8088 26.5801L69.1328 24.4634H74.7053L74.3289 26.9243C73.9525 29.3855 74.9952 30.2714 76.8705 30.2714C78.7457 30.2714 80.06 29.3855 80.4365 26.9243C81.5206 19.8361 70.2047 18.5073 71.7108 8.66272C72.5534 3.14993 75.9827 0 81.7152 0Z" fill="#EB402E"/>
<path d="M94.387 34.8489H88.4932L93.764 0.393555H99.6578L97.3988 15.1602H104.096L106.355 0.393555H112.355L107.085 34.8489H101.084L103.343 20.0823H96.646L94.387 34.8489Z" fill="#EB402E"/>
<path d="M143.907 0C149.64 0 152.105 3.15034 151.262 8.66314L151.096 9.74577H145.523L145.742 8.31817C146.118 5.85776 145.189 4.92249 143.315 4.92249C141.44 4.92249 140.225 5.85776 139.848 8.31817C138.764 15.4068 150.08 16.7352 148.573 26.5801C147.73 32.0929 144.248 35.2433 138.462 35.2433C132.675 35.2433 130.157 32.0929 131 26.5801L131.324 24.4639H136.897L136.52 26.9243C136.144 29.3855 137.186 30.2718 139.062 30.2718C140.937 30.2718 142.251 29.3855 142.628 26.9243C143.712 19.8365 132.396 18.5077 133.903 8.66314C134.745 3.15034 138.174 0 143.907 0Z" fill="#EB402E"/>
<path d="M169.758 34.8489H163.811L163.749 28.5976H156.516L154.542 34.8489H149.13L160.402 0.393555H169.028L169.758 34.8489ZM157.982 23.9226H163.661L163.487 6.49707L157.982 23.9226Z" fill="#EB402E"/>
<path d="M177.763 0.393555H183.657L179.139 29.9264H188.837L188.084 34.8489H172.492L177.763 0.393555Z" fill="#EB402E"/>
<path d="M199.599 14.9146H207.689L206.936 19.8371H198.846L197.302 29.9274H207.482L206.729 34.8499H190.655L195.926 0.394531H212L211.247 5.31703H201.067L199.599 14.9146Z" fill="#EB402E"/>
<path d="M17.0817 0.393555H9.19775L16.7062 3.3036L17.0817 0.393555Z" fill="#EB402E"/>
<path d="M56.8249 0.393555H48.9414L56.4494 3.3036L56.8249 0.393555Z" fill="#EB402E"/>
<path d="M80.7262 0H72.8428L80.3512 2.90963L80.7262 0Z" fill="#EB402E"/>
<path d="M97.1149 0.393555H89.2314L96.7399 3.3036L97.1149 0.393555Z" fill="#EB402E"/>
<path d="M110.006 0.393555H102.122L109.63 3.3036L110.006 0.393555Z" fill="#EB402E"/>
<path d="M13.1397 22.7432H0L12.514 25.6528L13.1397 22.7432Z" fill="#EB402E"/>
<path d="M54.8023 23.9121H41.6621L54.1766 26.8217L54.8023 23.9121Z" fill="#EB402E"/>
<path d="M167.299 0.393555H154.159L166.674 3.30359L167.299 0.393555Z" fill="#EB402E"/>
<path d="M198.722 15.2988H185.582L198.096 18.2089L198.722 15.2988Z" fill="#EB402E"/>
<path d="M183.472 0.393555H170.332L182.846 3.30359L183.472 0.393555Z" fill="#EB402E"/>
<path d="M202.222 0.393555H189.082L201.596 3.30359L202.222 0.393555Z" fill="#EB402E"/>
<path d="M144.373 0H131.233L143.747 2.91004L144.373 0Z" fill="#EB402E"/>
<path d="M135.363 24.4873H122.223L134.737 27.3973L135.363 24.4873Z" fill="#EB402E"/>
<path d="M138.438 15.2988H125.298L137.812 18.2089L138.438 15.2988Z" fill="#EB402E"/>
<path d="M37.8113 0.431232L30.5166 13.9474H38.1389L46.4991 0.393555L37.8113 0.431232Z" fill="#FFAB00"/>
<path d="M30.5166 13.9477L36.2131 10.9355V13.9477H30.5166Z" fill="#FFB91D"/>
<path d="M30.5166 13.9477L36.2131 10.9355V13.9477H30.5166Z" fill="#FFD800"/>
<path d="M43.7944 10.9355L35.926 23.8116H28.6313L36.2131 10.9355H43.7944Z" fill="#FFAB00"/>
<path d="M34.4504 20.2715L28.6313 23.8108H34.4504L35.9465 22.4363L34.4504 20.2715Z" fill="#FFB91D"/>
<path d="M34.4504 20.2715L28.6313 23.8108H34.4504L35.9465 22.4363L34.4504 20.2715Z" fill="#FFD800"/>
<path d="M40.9258 20.2715L26.1729 39.9991L34.4505 20.2715H40.9258Z" fill="#FFAB00"/>
</svg>
