<?xml version="1.0" encoding="UTF-8"?>
<svg id="Layer_2" data-name="Layer 2" xmlns="http://www.w3.org/2000/svg" viewBox="0 0 77.5 77.5">
  <defs>
    <style>
      .cls-1 {
        fill: #fff;
      }

      .cls-2 {
        fill: #dd4b39;
      }
    </style>
  </defs>
  <g id="Layer_1-2" data-name="Layer 1">
    <g>
      <circle class="cls-2" cx="38.7" cy="38.7" r="38.7"/>
      <path class="cls-1" d="m40.3,35.1h24.7s.5,1,.5,5.5-.9,12.7-6.8,18.3c-5.8,5.5-13.7,7.2-19.2,7.2s-13.2-1.7-19.3-7.5c-6.2-5.8-8.2-13.2-8.2-20s3-14.6,8.7-20.1,12.8-7,18-7,10.7.4,18.8,7.2l-6.9,6.8s-4.9-4.1-11-4.1-11.4,3.5-14.2,7.7-3,8.3-3,9.7,0,6.3,3.4,10.9,8.9,7.2,14,7.2,9.1-2,12.1-5.3c3-3.2,3.8-5.7,3.9-7.8h-15.6v-8.7Z"/>
    </g>
  </g>
</svg>