<?xml version="1.0" encoding="UTF-8"?>
<svg id="Layer_2" data-name="Layer 2" xmlns="http://www.w3.org/2000/svg" viewBox="0 0 50 50">
  <defs>
    <style>
      .cls-1 {
        fill: #fff;
      }

      .cls-2 {
        fill: #28a8e7;
      }
    </style>
  </defs>
  <g id="Layer_1-2" data-name="Layer 1">
    <g>
      <circle class="cls-2" cx="25" cy="25" r="25"/>
      <path class="cls-1" d="m39.6,16.3c-1.2.5-2.1.4-2.1.4,3.2-1.7,3.2-4.8,3.2-4.8,0,0-.8,1-2.3,1.8-1.1.6-2.1.6-2.5.5-1.7-2.1-4.3-2.7-7.1-1.6-3,1.1-3.7,3.8-3.8,5.7,0,1.6.5,2.6.5,2.6,0,0-4.4-.2-8.1-2.2-3.7-2-6.3-5.3-6.3-5.3-2.8,6.8,2.8,9.7,2.8,9.7,0,0-.6,0-1.7-.2s-1.8-.7-1.8-.7c0,0-.1,2.6,1.7,4.8s4.7,2.6,4.7,2.6c0,0-.5.2-1.8.3-1.2.1-2.1,0-2.1,0,0,0,.6,1.9,2.1,3.3s3.5,1.7,3.5,1.7c0,0-1.6,1.6-4.3,2.3-2.7.8-5.1.6-5.1.6,6.7,4.3,13.3,4,19,1.2s10.1-9.1,10.1-16.7,0-2.1-.2-3.1c.5-.2,1.3-.6,2.1-1.4,1.4-1.3,1.6-2.7,1.6-2.7,0,0-.8.8-2,1.3Z"/>
    </g>
  </g>
</svg>