<svg width="16" height="16" viewBox="0 0 16 16" fill="none" xmlns="http://www.w3.org/2000/svg">
<path d="M7.26201 2.40931H2.39156C2.02249 2.40931 1.66855 2.54784 1.40758 2.79444C1.14661 3.04103 1 3.37548 1 3.72421V12.9285C1 13.2772 1.14661 13.6117 1.40758 13.8583C1.66855 14.1049 2.02249 14.2434 2.39156 14.2434H12.1325C12.5015 14.2434 12.8555 14.1049 13.1165 13.8583C13.3774 13.6117 13.524 13.2772 13.524 12.9285V8.32636M12.4804 1.42314C12.7572 1.16159 13.1326 1.01465 13.524 1.01465C13.9155 1.01465 14.2909 1.16159 14.5677 1.42314C14.8445 1.68469 15 2.03942 15 2.40931C15 2.7792 14.8445 3.13394 14.5677 3.39549L7.95779 9.64126L5.17468 10.2987L5.87046 7.66891L12.4804 1.42314Z" stroke="white" stroke-width="2" stroke-linecap="round" stroke-linejoin="round"/>
</svg>
