<svg width="16" height="16" viewBox="0 0 16 16" fill="none" xmlns="http://www.w3.org/2000/svg">
<path d="M7.99378 3.87847C5.72457 3.87847 3.88627 5.71479 3.88627 7.9796C3.88627 10.2453 5.72457 12.0816 7.99378 12.0816C10.2612 12.0816 12.1013 10.2453 12.1013 7.9796C12.1013 5.71479 10.2612 3.87847 7.99378 3.87847ZM7.99378 10.6445C6.51977 10.6445 5.32474 9.45132 5.32474 7.98048C5.32474 6.50876 6.51977 5.31648 7.99378 5.31648C9.46779 5.31648 10.661 6.50876 10.661 7.98048C10.661 9.45132 9.46779 10.6445 7.99378 10.6445Z" fill="white"/>
<path d="M12.2648 4.68397C12.7937 4.68397 13.2226 4.25581 13.2226 3.72766C13.2226 3.1995 12.7937 2.77135 12.2648 2.77135C11.7358 2.77135 11.307 3.1995 11.307 3.72766C11.307 4.25581 11.7358 4.68397 12.2648 4.68397Z" fill="white"/>
<path d="M15.5762 2.75538C15.1595 1.68286 14.311 0.834775 13.2368 0.420492C12.6157 0.187181 11.9591 0.0620979 11.2945 0.0479041C10.4389 0.0106453 10.1679 0 7.99822 0C5.82852 0 5.55042 -8.92285e-08 4.70191 0.0479041C4.03909 0.0612108 3.3825 0.186294 2.76144 0.420492C1.68636 0.834775 0.83785 1.68286 0.422035 2.75538C0.188361 3.37636 0.0630831 4.03105 0.0497557 4.69461C0.0115504 5.54802 0 5.81858 0 7.98581C0 10.1521 -6.6198e-09 10.428 0.0497557 11.277C0.0630831 11.9406 0.188361 12.5953 0.422035 13.2171C0.838738 14.2888 1.68725 15.1368 2.76233 15.552C3.38072 15.7933 4.03732 15.9299 4.70369 15.9512C5.55931 15.9885 5.8303 16 8 16C10.1697 16 10.4478 16 11.2963 15.9512C11.96 15.9379 12.6166 15.8119 13.2386 15.5795C14.3128 15.1635 15.1613 14.3163 15.578 13.2437C15.8116 12.6228 15.9369 11.9681 15.9502 11.3045C15.9884 10.4511 16 10.1805 16 8.01331C16 5.84609 16 5.57108 15.9502 4.72211C15.9387 4.04968 15.8143 3.38346 15.5762 2.75538ZM14.494 11.2114C14.4878 11.7223 14.3954 12.2289 14.2177 12.7088C13.9467 13.407 13.3949 13.9587 12.6966 14.2267C12.2212 14.4032 11.7201 14.4955 11.2128 14.5026C10.3687 14.5416 10.1306 14.5513 7.96624 14.5513C5.80009 14.5513 5.57885 14.5513 4.71879 14.5026C4.21324 14.4963 3.71035 14.4032 3.2359 14.2267C2.53487 13.9596 1.97956 13.4079 1.70857 12.7088C1.53443 12.2351 1.44025 11.7339 1.43225 11.2282C1.39405 10.3855 1.38516 10.1477 1.38516 7.98669C1.38516 5.8248 1.38516 5.6039 1.43225 4.74429C1.43847 4.23331 1.53088 3.72766 1.70857 3.24773C1.97956 2.54779 2.53487 1.9969 3.2359 1.72899C3.71035 1.55334 4.21324 1.46019 4.71879 1.45309C5.56375 1.41495 5.80098 1.4043 7.96624 1.4043C10.1315 1.4043 10.3536 1.4043 11.2128 1.45309C11.7201 1.4593 12.2212 1.55245 12.6966 1.72899C13.3949 1.99778 13.9467 2.54957 14.2177 3.24773C14.3918 3.72145 14.486 4.22267 14.494 4.72832C14.5322 5.57197 14.542 5.80883 14.542 7.97073C14.542 10.1317 14.542 10.3642 14.5038 11.2122H14.494V11.2114Z" fill="white"/>
</svg>
