<?xml version="1.0" encoding="UTF-8"?>
<svg id="Layer_2" data-name="Layer 2" xmlns="http://www.w3.org/2000/svg" xmlns:xlink="http://www.w3.org/1999/xlink" viewBox="0 0 50 50">
  <defs>
    <style>
      .cls-1 {
        fill: #fff;
      }

      .cls-2 {
        fill: url(#linear-gradient);
      }
    </style>
    <linearGradient id="linear-gradient" x1="6.5" y1="3.6" x2="47.7" y2="51.2" gradientUnits="userSpaceOnUse">
      <stop offset="0" stop-color="#ff7bac"/>
      <stop offset="0" stop-color="#eb7fb0"/>
      <stop offset=".5" stop-color="#8396cb"/>
      <stop offset=".9" stop-color="#42a5db"/>
      <stop offset="1" stop-color="#29abe2"/>
    </linearGradient>
  </defs>
  <g id="Layer_1-2" data-name="Layer 1">
    <g>
      <circle class="cls-2" cx="25" cy="25" r="25"/>
      <path class="cls-1" d="m17.1,39.4c-1.7,0-3.4-.6-4.8-2.2-2.6-2.9-1.8-7.1.5-9.3,1-1,2.1-2.1,3.1-3.1.6-.6,1.2-1.2,1.6-1.6.2-.2.3-.3.5-.5,1.1-1.1,2.4-2.5,4.8-2.8,3.3-.5,5.7,2.2,5.8,2.4.6.7.5,1.7-.2,2.2-.7.6-1.7.5-2.2-.2,0,0-1.3-1.5-2.8-1.3-1.3.2-2,.9-3,1.9-.2.2-.3.4-.5.5-.4.4-1,1-1.6,1.6-1,1-2.1,2.1-3.1,3.1-1,1-1.9,3.3-.4,4.9,1.5,1.6,3.6,1.2,4.7.3.8-.8,2.7-2.6,4.1-4.1,1.9,1.1,4.3.1,4.3.1,0,0-4.7,4.9-6.3,6.3-1.1,1-2.7,1.6-4.4,1.6Z"/>
      <path class="cls-1" d="m26.3,30.1c-2.9,0-4.8-2.3-4.9-2.4-.6-.7-.5-1.7.2-2.2.7-.6,1.7-.5,2.2.2,0,0,1.3,1.5,2.8,1.3,1.3-.2,2-.9,3-1.9.2-.2.3-.4.5-.5.8-.7,1.9-1.9,3-3,.6-.6,1.2-1.2,1.7-1.7,1-1,2.1-3.1.4-4.9-.8-.8-1.7-1-2.3-1.1-.9,0-1.8.3-2.3.9-.8.8-2.6,2.6-4.1,4-2.3-1.2-4.4,0-4.4,0,0,0,4.7-4.7,6.2-6.2,1.2-1.2,2.9-1.8,4.7-1.8,1.7,0,3.4.8,4.5,2.1,1.3,1.4,1.9,3.2,1.7,5-.2,1.6-1,3.1-2.2,4.3-.5.5-1.1,1.1-1.7,1.7-1.2,1.2-2.3,2.3-3,3-.2.2-.3.3-.5.5-1.1,1.1-2.4,2.5-4.8,2.8-.3,0-.6,0-.8,0Z"/>
    </g>
  </g>
</svg>