<?xml version="1.0" encoding="UTF-8"?>
<svg id="Layer_2" data-name="Layer 2" xmlns="http://www.w3.org/2000/svg" viewBox="0 0 50 50">
  <defs>
    <style>
      .cls-1 {
        fill: #fff;
      }

      .cls-2 {
        fill: #00b900;
      }
    </style>
  </defs>
  <g id="Layer_1-2" data-name="Layer 1">
    <g>
      <circle class="cls-2" cx="25" cy="25" r="25"/>
      <path class="cls-1" d="m40.8,22.7c0-7.1-7.1-12.9-15.8-12.9s-15.8,5.8-15.8,12.9,5.9,11.9,13.7,12.7c.3,0,.7.3.9.5.3.3.4.7.1,2-.2,1.3-.3,1.7,0,2,.4.3,1.5-.1,4-1.4,2.2-1.2,6.4-3.6,10.1-8.4,1.8-2.1,2.9-4.6,2.9-7.4Z"/>
      <g>
        <rect class="cls-2" x="20.3" y="19.3" width="1.8" height="7.5" rx=".3" ry=".3"/>
        <path class="cls-2" d="m35.9,20.6v-.8c0-.3-.2-.5-.5-.5h-4.2c-.3,0-.5.2-.5.5v6.5c0,.3.2.5.5.5h4.2c.3,0,.5-.2.5-.5v-.8c0-.3-.2-.5-.5-.5h-2.9v-1.1h2.9c.3,0,.5-.2.5-.5v-.8c0-.3-.2-.5-.5-.5h-2.9v-1.1h2.9c.3,0,.5-.2.5-.5Z"/>
        <path class="cls-2" d="m29.5,19.3h-1.2c-.2,0-.3.1-.3.3v4l-3.1-4.2c0,0-.1-.1-.2-.1h-1.2c-.2,0-.3.1-.3.3v7c0,.2.1.3.3.3h1.2c.2,0,.3-.1.3-.3v-4l3.1,4.2c0,0,.1.1.2.1h1.2c.2,0,.3-.1.3-.3v-7c0-.2-.1-.3-.3-.3Z"/>
        <path class="cls-2" d="m16.2,25.1v-5.5c0-.2-.1-.3-.3-.3h-1.2c-.2,0-.3.1-.3.3v6.9c0,.2.1.3.3.3h4.5c.2,0,.3-.1.3-.3v-1.1c0-.2-.1-.3-.3-.3h-3Z"/>
      </g>
    </g>
  </g>
</svg>