<svg width="15" height="15" viewBox="0 0 15 15" fill="none" xmlns="http://www.w3.org/2000/svg">
<path fill-rule="evenodd" clip-rule="evenodd" d="M14.083 7.78092C14.0835 7.30197 14.0411 6.82394 13.9563 6.35254H7.37854V9.05356H11.1368C11.0593 9.48091 10.8958 9.88807 10.6562 10.2504C10.4167 10.6127 10.1062 10.9226 9.74336 11.1614V12.9139H12.0003C13.3208 11.6977 14.0827 9.90761 14.0827 7.78092H14.083Z" fill="white"/>
<path fill-rule="evenodd" clip-rule="evenodd" d="M7.37847 14.6045C9.26389 14.6045 10.8449 13.9792 12.0002 12.9129L9.74329 11.1605C9.11795 11.5794 8.31804 11.8274 7.37847 11.8274C5.55974 11.8274 4.01994 10.5991 3.4711 8.94824H1.13806V10.7599C1.71976 11.9161 2.61135 12.8879 3.7133 13.5668C4.81524 14.2457 6.08418 14.6049 7.37847 14.6045Z" fill="white"/>
<path fill-rule="evenodd" clip-rule="evenodd" d="M3.47156 8.9492C3.17916 8.08885 3.17916 7.156 3.47156 6.29564V4.48633H1.13813C0.649799 5.45969 0.395508 6.53363 0.395508 7.62262C0.395508 8.7116 0.649799 9.78555 1.13813 10.7589L3.47156 8.9492Z" fill="white"/>
<path d="M1.13806 4.48602L3.4715 6.29533C4.02072 4.64451 5.56013 3.4162 7.37886 3.4162C8.40435 3.4162 9.3247 3.76927 10.0485 4.46052L12.0516 2.4574C10.8421 1.3307 9.26154 0.638672 7.37847 0.638672C6.08384 0.638219 4.81459 0.997795 3.71257 1.67722C2.61054 2.35664 1.71917 3.32913 1.13806 4.48602Z" fill="white"/>
</svg>
