<svg width="44" height="44" viewBox="0 0 44 44" fill="none" xmlns="http://www.w3.org/2000/svg">
<path d="M40.73 39.42H3.27C1.83 39.42 0.669998 38.25 0.669998 36.82V34.55C0.669998 33.75 1.04 32.99 1.67 32.5C3.31 31.21 5.73 28.6 5.95 26.85L6.07 25.93C6.53 22.39 7 18.73 7.22 16.09C7.79 9.32 12.56 3.89 19.17 2.37C19.79 1.21 20.88 0.63 21.83 0.56C22.82 0.4 24.18 0.980001 24.87 2.37C31.45 3.91 36.21 9.36 36.79 16.09C37.01 18.73 37.49 22.39 37.94 25.93L38.06 26.85C38.29 28.6 40.7 31.21 42.34 32.5C42.97 32.99 43.34 33.75 43.34 34.55V36.82C43.34 38.26 42.17 39.42 40.74 39.42H40.73ZM7.44 34.21H36.57C34.99 32.51 33.23 30.09 32.9 27.51L32.78 26.59C32.31 22.99 31.83 19.27 31.6 16.52C31.21 11.88 27.97 8.29 23.35 7.36C22.97 7.28 22.51 7.1 22.06 6.83C21.63 7.09 21.2 7.26 20.84 7.32C16.2 8.18 12.81 11.87 12.42 16.51C12.19 19.26 11.71 22.98 11.24 26.58L11.12 27.5C10.79 30.07 9.02 32.5 7.45 34.2L7.44 34.21Z" fill="white"/>
<path d="M22 43.77C18.17 43.77 15.05 40.65 15.05 36.82C15.05 36.16 15.59 35.62 16.25 35.62C16.91 35.62 17.45 36.16 17.45 36.82C17.45 39.34 19.5 41.38 22.01 41.38C24.52 41.38 26.57 39.33 26.57 36.82C26.57 36.16 27.11 35.62 27.77 35.62C28.43 35.62 28.97 36.16 28.97 36.82C28.97 40.65 25.85 43.77 22.02 43.77H22Z" fill="white"/>
</svg>
