<svg width="40" height="40" viewBox="0 0 40 40" fill="none" xmlns="http://www.w3.org/2000/svg">
<path d="M40 38.1818L40 25.4545C40.0042 24.4136 39.6431 23.4043 38.9799 22.6033C38.3166 21.8022 37.3934 21.2604 36.3719 21.0727L27.2109 19.4C26.5726 19.2844 25.9168 19.3108 25.2899 19.4773C24.6629 19.6438 24.0801 19.9464 23.5828 20.3636C23.0851 20.7832 22.6846 21.3062 22.4089 21.8965C22.1333 22.4868 21.9891 23.1301 21.9864 23.7818L21.9864 29.0909L20.7891 28.6364C19.9014 28.3008 18.9461 28.1842 18.0039 28.2965C17.0618 28.4088 16.1604 28.7467 15.3759 29.2815C14.5915 29.8164 13.9469 30.5326 13.4967 31.3697C13.0464 32.2067 12.8038 33.1401 12.7891 34.0909C12.7863 34.4437 12.8861 34.7898 13.0761 35.0868C13.2661 35.3838 13.5383 35.619 13.8594 35.7636L23.0385 39.8364C23.2385 39.9291 23.4537 39.9846 23.6735 40L38.1859 40C38.667 40 39.1284 39.8084 39.4686 39.4675C39.8088 39.1265 40 38.664 40 38.1818ZM24.1633 36.3636L16.6712 33.0364C16.8475 32.7116 17.0957 32.4317 17.3968 32.2182C17.699 32.0042 18.0496 31.8689 18.4169 31.8245C18.7842 31.7801 19.1568 31.8279 19.5011 31.9636L21.3152 32.6545C21.7857 32.8363 22.2938 32.8982 22.794 32.8348C23.2942 32.7713 23.7709 32.5844 24.1814 32.2909C24.5903 32.0019 24.9228 31.6174 25.1504 31.1708C25.3779 30.7242 25.4936 30.2287 25.4875 29.7273L25.4875 23.7455C25.4872 23.6247 25.5129 23.5052 25.5631 23.3954C25.6132 23.2855 25.6864 23.1879 25.7778 23.1091C25.9712 22.968 26.2125 22.9091 26.449 22.9455L35.5192 24.6182C35.6317 24.6104 35.7445 24.6265 35.8502 24.6655C35.956 24.7045 36.0523 24.7655 36.1329 24.8445C36.2134 24.9235 36.2764 25.0187 36.3175 25.1239C36.3587 25.229 36.3772 25.3417 36.3719 25.4545L36.3718 36.3636L24.1633 36.3636ZM18.1406 16.2545L18.1406 11L19.3379 11.4545C20.2308 11.7853 21.1902 11.8951 22.1345 11.7746C23.0789 11.6541 23.9802 11.3069 24.762 10.7625C25.5438 10.2181 26.1829 9.49261 26.6251 8.64764C27.0672 7.80267 27.2993 6.86321 27.3016 5.90909C27.3044 5.55625 27.2046 5.21023 27.0146 4.91321C26.8245 4.6162 26.5524 4.38102 26.2313 4.23636L17.0522 0.163635C16.8242 0.059445 16.5771 0.00372863 16.3265 -1.0348e-06L1.81409 -1.66916e-06C1.33297 -1.69019e-06 0.871559 0.191556 0.531361 0.532531C0.191158 0.873507 3.42739e-05 1.33597 3.42528e-05 1.81818L3.36965e-05 14.5455C-0.00421974 15.5864 0.356872 16.5957 1.02013 17.3967C1.68339 18.1978 2.60658 18.7396 3.62815 18.9273L12.6984 20.6C13.3367 20.7156 13.9925 20.6892 14.6194 20.5227C15.2464 20.3562 15.8292 20.0536 16.3265 19.6364C16.8595 19.2421 17.2987 18.7343 17.6123 18.1496C17.926 17.5648 18.1064 16.9176 18.1406 16.2545ZM4.39005 15.3818C4.19464 15.3506 4.01776 15.2477 3.89373 15.0932C3.76971 14.9387 3.70739 14.7435 3.71885 14.5455L3.71885 3.63636L15.9274 3.63636L23.4195 6.96364C23.2432 7.28837 22.995 7.56827 22.6939 7.78182C22.3917 7.99579 22.0411 8.13108 21.6738 8.17551C21.3065 8.21995 20.9339 8.17213 20.5896 8.03636L18.7755 7.34545C18.305 7.16369 17.7969 7.10177 17.2967 7.16524C16.7965 7.2287 16.3198 7.41557 15.9093 7.70909C15.4937 7.99409 15.1541 8.37675 14.9201 8.82363C14.6861 9.27052 14.5648 9.76804 14.5669 10.2727L14.5669 16.2545C14.5672 16.3753 14.5415 16.4948 14.4914 16.6046C14.4413 16.7145 14.368 16.8121 14.2767 16.8909C14.0832 17.0321 13.842 17.0909 13.6055 17.0545L4.39005 15.3818Z" fill="#9D9D9D"/>
</svg>
