<svg width="22" height="22" viewBox="0 0 22 22" fill="none" xmlns="http://www.w3.org/2000/svg">
<circle cx="11" cy="11" r="11" fill="#111111"/>
<path d="M11.7364 5.01758V6.16033C12.1929 6.23422 12.5662 6.38568 12.856 6.61503C13.1461 6.84438 13.4224 7.19622 13.6857 7.67023L12.5546 8.30569C12.2141 7.68388 11.7692 7.37298 11.2204 7.37298C10.8799 7.37298 10.5977 7.47417 10.3735 7.67623C10.1492 7.87828 10.0369 8.13093 10.0369 8.43417C10.0369 8.71013 10.1277 8.93947 10.3095 9.12222C10.4874 9.30097 10.8471 9.51301 11.3887 9.75767C11.8567 9.97138 12.2432 10.1728 12.5489 10.3612C12.8543 10.5496 13.0845 10.7313 13.2392 10.9064C13.6761 11.3808 13.8947 11.954 13.8947 12.6264C13.8947 13.2871 13.6976 13.8703 13.3031 14.3753C12.9123 14.8766 12.3903 15.2148 11.7368 15.3899V16.5965H10.7216V15.4248C9.96339 15.3003 9.38541 15.038 8.98694 14.6379C8.58848 14.2375 8.29469 13.6197 8.10522 12.7838L9.38143 12.5155C9.55533 13.1064 9.76797 13.5281 10.0197 13.7808C10.2827 14.0218 10.6325 14.1423 11.0697 14.1423C11.495 14.1423 11.8507 14.0045 12.1372 13.7282C12.4194 13.4562 12.5609 13.1044 12.5609 12.673C12.5609 12.2882 12.4429 11.9793 12.2071 11.7459C12.0872 11.6334 11.9103 11.5059 11.6762 11.3641C11.442 11.2223 11.1432 11.0679 10.7799 10.9008C10.0296 10.5626 9.53645 10.2517 9.30061 9.96805C8.92534 9.5443 8.73786 9.03734 8.73786 8.44649C8.73786 8.16655 8.78225 7.90624 8.87135 7.66524C8.96045 7.42424 9.08896 7.20554 9.25722 7.00948C9.42549 6.81342 9.63349 6.64332 9.88092 6.49952C10.1283 6.35572 10.4089 6.24288 10.7219 6.16133V5.01858H11.7364V5.01758Z" fill="white"/>
</svg>
