<svg width="22" height="18" viewBox="0 0 22 18" fill="none" xmlns="http://www.w3.org/2000/svg">
<path fill-rule="evenodd" clip-rule="evenodd" d="M4 0V2H2V4H0V2C0 0.89543 0.814028 0 1.81818 0H4ZM4.81818 3H17.1818C18.186 3 19 3.89543 19 5V13C19 14.1046 18.186 15 17.1818 15H4.81818C3.81403 15 3 14.1046 3 13V5C3 3.89543 3.81403 3 4.81818 3ZM4.9998 9V13H16.9998V9H4.9998ZM4.9998 7H16.9998V4.99995H4.9998V7ZM18 16V18H20.1818C21.186 18 22 17.1046 22 16V14H20V16H18ZM18 0H20.1818C21.186 0 22 0.89543 22 2V4H20V2H18V0ZM1.81818 18H4V16H2V14H0V16C0 17.1046 0.814028 18 1.81818 18Z" fill="#202020"/>
</svg>
