<svg width="17" height="15" viewBox="0 0 17 15" fill="none" xmlns="http://www.w3.org/2000/svg">
<path fill-rule="evenodd" clip-rule="evenodd" d="M11.5918 1.20007e-05C10.5129 0 9.81738 0.128537 9.02011 0.518783C8.72493 0.663265 8.448 0.837264 8.19082 1.04026C7.94355 0.848644 7.67769 0.682634 7.39473 0.542678C6.58198 0.140694 5.85081 0 4.81057 0C2.02456 0 0 2.30839 0 5.30644C0 7.57057 1.26241 9.75768 3.61384 11.8725C4.8481 12.9826 6.42398 14.0812 7.55257 14.6656L8.1983 15L8.84402 14.6656C9.97262 14.0812 11.5485 12.9826 12.7828 11.8725C15.1342 9.75768 16.3966 7.57057 16.3966 5.30644C16.3966 2.34013 14.3529 0.0114466 11.5918 1.20007e-05ZM14.906 5.30655C14.906 7.08038 13.8523 8.90593 11.786 10.7644C10.6594 11.7776 9.21113 12.7902 8.19829 13.3214C7.18546 12.7902 5.73718 11.7776 4.61062 10.7644C2.54431 8.90593 1.49059 7.08038 1.49059 5.30655C1.49059 3.0914 2.89447 1.49071 4.81057 1.49071C5.63765 1.49071 6.14732 1.58878 6.73388 1.87889C7.08035 2.05026 7.38657 2.27653 7.65164 2.5593L8.20004 3.14431L8.74344 2.55466C9.01447 2.26057 9.3252 2.02914 9.67542 1.85771C10.2448 1.57902 10.7226 1.49071 11.5887 1.49071C13.4811 1.49856 14.906 3.12214 14.906 5.30655Z" fill="#FF4848"/>
<path d="M5.99997 0.5C-3.60003 2.9 3.3333 10.5 7.99997 14C11.9999 12 15 7.5 15.5 6C15.9 4.8 14 2.16667 13 1C11.4 0.2 8.99998 2 7.99997 3L5.99997 0.5Z" fill="#FF4848"/>
</svg>
