<svg width="14" height="14" viewBox="0 0 14 14" fill="none" xmlns="http://www.w3.org/2000/svg">
<path fill-rule="evenodd" clip-rule="evenodd" d="M13.2981 0L13.9978 12.5223C14.0409 13.2943 13.4465 13.955 12.67 13.9978C12.631 13.9996 12.631 13.9996 12.592 14H12.592H12.5919H1.40804C0.630399 14 0 13.3732 0 12.6C0.000180723 12.5806 0.000271086 12.5709 0.000542061 12.5612C0.000813044 12.5514 0.00126465 12.5417 0.00216788 12.5223L0.701847 0H13.2981ZM2.03385 1.40002L1.40806 12.6H12.5919L11.9662 1.40002H2.03385ZM4.88799 2.7998H3.47995V4.5498C3.47995 6.23029 5.11555 7.6998 7.00004 7.6998C8.88453 7.6998 10.5201 6.23029 10.5201 4.5498V2.7998H9.11209V4.5498C9.11209 5.42367 8.13693 6.2998 7.00004 6.2998C5.86315 6.2998 4.88799 5.42367 4.88799 4.5498V2.7998Z" fill="#111111"/>
</svg>
