<svg width="16" height="16" viewBox="0 0 16 16" fill="none" xmlns="http://www.w3.org/2000/svg">
<path d="M1 3.8L3.33333 1H12.6667L15 3.8M1 3.8V13.6C1 13.9713 1.16389 14.3274 1.45561 14.5899C1.74733 14.8525 2.143 15 2.55556 15H13.4444C13.857 15 14.2527 14.8525 14.5444 14.5899C14.8361 14.3274 15 13.9713 15 13.6V3.8M1 3.8H15M11.1111 6.6C11.1111 7.34261 10.7833 8.0548 10.1999 8.5799C9.61644 9.105 8.82512 9.4 8 9.4C7.17488 9.4 6.38356 9.105 5.80011 8.5799C5.21667 8.0548 4.88889 7.34261 4.88889 6.6" stroke="#111111" stroke-width="1.5" stroke-linecap="round" stroke-linejoin="round"/>
</svg>
