<svg width="43" height="43" viewBox="0 0 43 43" fill="none" xmlns="http://www.w3.org/2000/svg">
<path d="M40.21 42.63H3.44999C2.73999 42.63 2.05999 42.34 1.56999 41.82C1.07999 41.31 0.819992 40.61 0.849992 39.9L2.58999 3.14C2.65999 1.75 3.79999 0.66 5.18999 0.66H38.47C39.86 0.66 41.01 1.75 41.07 3.14L42.81 39.9C42.84 40.61 42.58 41.31 42.09 41.82C41.6 42.34 40.92 42.63 40.21 42.63ZM6.17999 37.42H37.48L35.99 5.87H7.67999L6.18999 37.42H6.17999Z" fill="white"/>
<path d="M23 23.4C17.62 23.4 13.24 19.02 13.24 13.64V9.84H16.71V13.64C16.71 17.1 19.53 19.92 22.99 19.92C26.45 19.92 29.27 17.1 29.27 13.64V9.84H32.74V13.64C32.74 19.02 28.36 23.4 22.99 23.4H23Z" fill="white"/>
</svg>
