<svg width="47" height="32" viewBox="0 0 47 32" fill="none" xmlns="http://www.w3.org/2000/svg">
<path fill-rule="evenodd" clip-rule="evenodd" d="M32.8147 4.26664L36.7451 12.1274L42.6664 16.075V23.4665H40.169C39.2905 20.9807 36.9198 19.1997 34.1331 19.1997C31.3467 19.1997 28.9761 20.9805 28.0975 23.4661H18.8356C17.957 20.9805 15.5864 19.1997 12.7999 19.1997C10.0133 19.1997 7.64262 20.9807 6.76408 23.4665H4.26664V4.26664H32.8147ZM42.6664 27.7332H40.1689C39.2903 30.2188 36.9197 31.9997 34.1331 31.9997C31.3464 31.9997 28.9757 30.2186 28.0972 27.7327H18.8358C17.9573 30.2186 15.5866 31.9997 12.7999 31.9997C10.0134 31.9997 7.64282 30.2188 6.76419 27.7332H4.26664C1.91024 27.7332 0 25.8229 0 23.4665V4.26664C0 1.91024 1.91024 0 4.26664 0H32.8147C34.4308 0 35.9081 0.913072 36.6309 2.35854L40.0545 9.20584L46.9331 13.7915V23.4665C46.9331 25.8229 45.0228 27.7332 42.6664 27.7332ZM14.9333 25.5994C14.9333 26.7776 13.9781 27.7327 12.7999 27.7327C11.6217 27.7327 10.6666 26.7776 10.6666 25.5994C10.6666 24.4212 11.6217 23.4661 12.7999 23.4661C13.9781 23.4661 14.9333 24.4212 14.9333 25.5994ZM36.2665 25.5991C36.2665 26.7773 35.3114 27.7325 34.1332 27.7325C32.955 27.7325 31.9999 26.7773 31.9999 25.5991C31.9999 24.4209 32.955 23.4658 34.1332 23.4658C35.3114 23.4658 36.2665 24.4209 36.2665 25.5991Z" fill="#9D9D9D"/>
</svg>
