<svg width="21" height="16" viewBox="0 0 21 16" fill="none" xmlns="http://www.w3.org/2000/svg">
<path d="M21 1.894C20.2274 2.21528 19.397 2.4324 18.5256 2.53002C19.4149 2.03013 20.0982 1.23857 20.4198 0.295322C19.5873 0.758249 18.6653 1.09438 17.6839 1.27548C16.8981 0.490466 15.7784 0 14.5392 0C12.1599 0 10.2307 1.80844 10.2307 4.03911C10.2307 4.35567 10.2688 4.66396 10.3423 4.95962C6.76159 4.79115 3.58691 3.18309 1.462 0.739304C1.09112 1.33586 0.878653 2.0297 0.878653 2.76997C0.878653 4.17133 1.63924 5.40765 2.79532 6.13205C2.08914 6.11096 1.42472 5.92932 0.843899 5.62679C0.843487 5.64366 0.843487 5.66052 0.843487 5.67755C0.843487 7.63464 2.32861 9.26711 4.29952 9.63821C3.93802 9.73054 3.55739 9.77995 3.16446 9.77995C2.88684 9.77995 2.61695 9.75454 2.35383 9.70748C2.90211 11.3121 4.49322 12.48 6.37855 12.5125C4.90404 13.596 3.04633 14.2417 1.02775 14.2417C0.679992 14.2417 0.337049 14.2225 0 14.1851C1.90667 15.3312 4.17134 16 6.60439 16C14.5291 16 18.8627 9.84518 18.8627 4.50746C18.8627 4.33237 18.8585 4.15816 18.8501 3.98489C19.692 3.4154 20.4225 2.70402 21 1.894Z" fill="white"/>
</svg>
