<svg width="33" height="40" viewBox="0 0 33 40" fill="none" xmlns="http://www.w3.org/2000/svg">
<path d="M31.9704 3.29774C31.7328 3.10973 31.4551 2.97619 31.1578 2.90695C30.8604 2.8377 30.551 2.83452 30.2523 2.89762C28.0666 3.34564 25.8102 3.35135 23.6222 2.91439C21.4342 2.47743 19.3607 1.60704 17.5295 0.356823C17.1871 0.124495 16.7804 0 16.3636 0C15.9469 0 15.5401 0.124495 15.1977 0.356823C13.3665 1.60704 11.2931 2.47743 9.10507 2.91439C6.91704 3.35135 4.66071 3.34564 2.47501 2.89762C2.17625 2.83452 1.86683 2.8377 1.56949 2.90695C1.27215 2.97619 0.994461 3.10973 0.756829 3.29774C0.519514 3.48604 0.32835 3.72395 0.197382 3.99399C0.0664148 4.26403 -0.00102721 4.55935 1.18258e-05 4.85823V19.7629C-0.00180666 22.6313 0.697047 25.4586 2.03838 28.0094C3.37971 30.5602 5.32469 32.7606 7.71137 34.4275L15.1773 39.6291C15.5237 39.8704 15.9384 40 16.3636 40C16.7889 40 17.2036 39.8704 17.55 39.6291L25.0159 34.4275C27.4026 32.7606 29.3476 30.5602 30.6889 28.0094C32.0302 25.4586 32.7291 22.6313 32.7273 19.7629V4.85823C32.7283 4.55935 32.6609 4.26403 32.5299 3.99399C32.3989 3.72395 32.2078 3.48604 31.9704 3.29774ZM28.6364 19.7629C28.6379 21.9931 28.0949 24.1914 27.0525 26.1749C26.01 28.1584 24.4983 29.8698 22.6432 31.1665L16.3636 35.5478L10.0841 31.1665C8.22894 29.8698 6.71725 28.1584 5.67481 26.1749C4.63238 24.1914 4.08935 21.9931 4.09092 19.7629V7.15895C8.37906 7.51793 12.6737 6.5448 16.3636 4.37808C20.0536 6.5448 24.3482 7.51793 28.6364 7.15895V19.7629ZM19.5136 15.1815L14.0114 20.5832L12.1909 18.7826C11.8057 18.4059 11.2833 18.1942 10.7386 18.1942C10.1939 18.1942 9.67153 18.4059 9.28637 18.7826C8.9012 19.1593 8.68482 19.6703 8.68482 20.203C8.68482 20.7358 8.9012 21.2468 9.28637 21.6235L12.5591 24.8245C12.7492 25.012 12.9755 25.1608 13.2247 25.2624C13.474 25.364 13.7413 25.4163 14.0114 25.4163C14.2814 25.4163 14.5487 25.364 14.798 25.2624C15.0473 25.1608 15.2735 25.012 15.4636 24.8245L22.5 18.0023C22.8852 17.6256 23.1015 17.1147 23.1015 16.5819C23.1015 16.0491 22.8852 15.5382 22.5 15.1615C22.1148 14.7847 21.5924 14.5731 21.0477 14.5731C20.503 14.5731 19.9806 14.7847 19.5955 15.1615L19.5136 15.1815Z" fill="#9D9D9D"/>
</svg>
