<svg width="18" height="17" viewBox="0 0 18 17" fill="none" xmlns="http://www.w3.org/2000/svg">
<path d="M9.06 0.230469C4.37 0.230469 0.570007 3.34996 0.570007 7.20996C0.570007 10.77 3.82001 13.7099 8.01001 14.1299C8.16001 14.1499 8.61002 14.0704 8.52002 14.8604C8.47002 15.2904 8.33999 15.9503 8.42999 16.2803C8.49999 16.5603 8.75 16.5599 9.06 16.4199C9.94 16.0299 13.19 14.0596 15.45 11.8096C16.72 10.5396 17.55 8.97973 17.55 7.21973C17.55 3.35973 13.75 0.230469 9.06 0.230469ZM5.96997 9.59961H4.09003H3.15997V8.66992V5.21973H4.09003V8.66992H5.96997V9.59961ZM7.52002 9.59961H6.59003V5.21973H7.52002V9.59961ZM11.91 9.59961H10.98H10.97L9.10999 7.08008V9.59961H8.17999V5.83008V5.21973H9.10999L10.98 7.75977V5.21973H11.91V9.59961ZM15.34 6.15039H13.46V6.94043H15.34V7.87012H13.46V8.66016H15.34V9.58984H13.46H12.53V8.66016V7.87012V6.94043V6.15039V5.21973H13.46H15.34V6.15039Z" fill="white"/>
</svg>
