<?xml version="1.0" encoding="UTF-8"?>
<svg id="Layer_2" data-name="Layer 2" xmlns="http://www.w3.org/2000/svg" viewBox="0 0 90 90">
  <defs>
    <style>
      .cls-1 {
        fill: #ffd400;
      }

      .cls-2 {
        fill: #1a1a1a;
      }
    </style>
  </defs>
  <g id="Layer_1-2" data-name="Layer 1">
    <g>
      <circle class="cls-1" cx="45" cy="45" r="45"/>
      <g>
        <path class="cls-2" d="m48.53,70.64h-14.17c-4.18,0-7.57-3.4-7.57-7.57V26.94c0-4.18,3.4-7.57,7.57-7.57h14.17v5.89h-14.17c-.93,0-1.68.75-1.68,1.68v36.13c0,.93.75,1.68,1.68,1.68h14.17v5.89Z"/>
        <path d="m60.67,48.93h-16.58c-.58,0-1.05-.56-1.05-1.24v-5.38c0-.69.47-1.24,1.05-1.24h16.58c.58,0,1.05.56,1.05,1.24v5.38c0,.69-.47,1.24-1.05,1.24Z"/>
        <path d="m60.08,53.38l7.89-7.89c.27-.27.27-.71,0-.98l-7.89-7.89c-.43-.43-1.18-.13-1.18.49v15.78c0,.61.74.92,1.18.49Z"/>
      </g>
    </g>
  </g>
</svg>