<svg width="300" height="80" viewBox="0 0 300 80" fill="none" xmlns="http://www.w3.org/2000/svg">
<rect width="300" height="80" fill="#3DC541"/>
<path d="M107 37.1441C107 24.9338 94.8883 15 79.9997 15C65.1132 15 53 24.9338 53 37.1441C53 48.0906 62.6055 57.258 75.5805 58.9916C76.4599 59.183 77.6566 59.5775 77.9594 60.337C78.2316 61.027 78.1374 62.1077 78.0463 62.8045C78.0463 62.8045 77.7296 64.7301 77.6613 65.1402C77.5438 65.8301 77.1188 67.8383 79.9997 66.6111C82.8817 65.3839 95.5493 57.3579 101.214 50.7684C105.127 46.4318 107 42.0309 107 37.1441Z" fill="white"/>
<path d="M74.4589 31.0003H72.445C72.1362 31.0003 71.8852 31.2576 71.8852 31.5737V44.4264C71.8852 44.743 72.1362 44.9997 72.445 44.9997H74.4589C74.7676 44.9997 75.0181 44.743 75.0181 44.4264V31.5737C75.0181 31.2576 74.7676 31.0003 74.4589 31.0003Z" fill="#3DC541"/>
<path d="M88.3205 31.0003H86.3066C85.9978 31.0003 85.7474 31.2576 85.7474 31.5737V39.2095L80.0145 31.2553C79.9085 31.0919 79.7365 31.011 79.5489 31.0003H77.5355C77.2267 31.0003 76.9758 31.2576 76.9758 31.5737V44.4264C76.9758 44.743 77.2267 44.9997 77.5355 44.9997H79.5489C79.8582 44.9997 80.1086 44.743 80.1086 44.4264V36.7928L85.8487 44.7572C85.9517 44.9072 86.1267 44.9997 86.3066 44.9997H88.3205C88.6298 44.9997 88.8797 44.743 88.8797 44.4264V31.5737C88.8797 31.2576 88.6298 31.0003 88.3205 31.0003Z" fill="#3DC541"/>
<path d="M69.6043 41.7815H64.1323V31.5745C64.1323 31.2573 63.8819 31 63.5736 31H61.5592C61.2504 31 61 31.2573 61 31.5745V44.4249C61 44.7369 61.2493 45 61.5587 45H69.6043C69.9131 45 70.1624 44.7422 70.1624 44.4249V42.356C70.1624 42.0387 69.9131 41.7815 69.6043 41.7815Z" fill="#3DC541"/>
<path d="M99.4419 34.2185C99.7507 34.2185 100 33.9618 100 33.644V31.5751C100 31.2578 99.7507 31 99.4419 31H91.3968C91.0878 31 90.8376 31.2626 90.8376 31.5745V44.4255C90.8376 44.7366 91.0871 45 91.3957 45H99.4419C99.7507 45 100 44.7422 100 44.4255V42.356C100 42.0393 99.7507 41.7815 99.4419 41.7815H93.9704V39.609H99.4419C99.7507 39.609 100 39.3517 100 39.0345V36.9655C100 36.6483 99.7507 36.3904 99.4419 36.3904H93.9704V34.2185H99.4419Z" fill="#3DC541"/>
<path d="M125.438 31H130.456C133.499 31 134.873 29.4851 134.873 27.478C134.873 25.4517 133.454 24.3075 132.156 24.2372V24.1094C133.358 23.8026 134.362 22.9844 134.362 21.348C134.362 19.4112 133.019 17.9091 130.232 17.9091H125.438V31ZM127.413 29.3061V25.1129H130.335C131.92 25.1129 132.911 26.1357 132.911 27.3821C132.911 28.4815 132.163 29.3061 130.264 29.3061H127.413ZM127.413 23.5724V19.5902H130.111C131.677 19.5902 132.425 20.4148 132.425 21.5014C132.425 22.767 131.389 23.5724 130.06 23.5724H127.413ZM141.294 31.1982C143.435 31.1982 144.95 30.1435 145.385 28.5455L143.576 28.2195C143.23 29.1463 142.4 29.6193 141.313 29.6193C139.676 29.6193 138.577 28.5582 138.526 26.6662H145.506V25.9886C145.506 22.4411 143.384 21.054 141.159 21.054C138.424 21.054 136.621 23.1378 136.621 26.1548C136.621 29.2038 138.398 31.1982 141.294 31.1982ZM138.532 25.2344C138.609 23.8409 139.619 22.6328 141.172 22.6328C142.655 22.6328 143.627 23.7322 143.633 25.2344H138.532ZM153.65 31L154.851 27.5355H159.965L161.16 31H163.257L158.546 17.9091H156.264L151.553 31H153.65ZM155.426 25.8736L157.357 20.2869H157.459L159.39 25.8736H155.426ZM169.911 31H171.886V25.2919H177.447V23.598H171.886V19.6094H178.029V17.9091H169.911V31ZM180.181 31H182.093V25.0043C182.093 23.7195 183.083 22.7926 184.438 22.7926C184.835 22.7926 185.282 22.8629 185.436 22.9077V21.0795C185.244 21.054 184.867 21.0348 184.624 21.0348C183.473 21.0348 182.489 21.6868 182.131 22.7415H182.029V21.1818H180.181V31ZM187.089 31H189.001V21.1818H187.089V31ZM188.055 19.6669C188.713 19.6669 189.263 19.1555 189.263 18.5291C189.263 17.9027 188.713 17.3849 188.055 17.3849C187.39 17.3849 186.847 17.9027 186.847 18.5291C186.847 19.1555 187.39 19.6669 188.055 19.6669ZM195.803 31.1982C197.945 31.1982 199.46 30.1435 199.894 28.5455L198.085 28.2195C197.74 29.1463 196.909 29.6193 195.823 29.6193C194.186 29.6193 193.087 28.5582 193.036 26.6662H200.016V25.9886C200.016 22.4411 197.894 21.054 195.669 21.054C192.933 21.054 191.131 23.1378 191.131 26.1548C191.131 29.2038 192.908 31.1982 195.803 31.1982ZM193.042 25.2344C193.119 23.8409 194.129 22.6328 195.682 22.6328C197.165 22.6328 198.137 23.7322 198.143 25.2344H193.042ZM204.048 25.1705C204.048 23.6044 205.006 22.7095 206.336 22.7095C207.634 22.7095 208.42 23.5597 208.42 24.9851V31H210.331V24.755C210.331 22.326 208.995 21.054 206.988 21.054C205.511 21.054 204.546 21.7379 204.092 22.7798H203.971V21.1818H202.136V31H204.048V25.1705ZM216.57 31.1918C218.359 31.1918 219.062 30.0987 219.408 29.4723H219.567V31H221.434V17.9091H219.523V22.7734H219.408C219.062 22.1662 218.411 21.054 216.582 21.054C214.211 21.054 212.466 22.9268 212.466 26.1101C212.466 29.2869 214.185 31.1918 216.57 31.1918ZM216.991 29.5618C215.285 29.5618 214.396 28.0597 214.396 26.0909C214.396 24.1413 215.266 22.6776 216.991 22.6776C218.66 22.6776 219.555 24.0391 219.555 26.0909C219.555 28.1555 218.641 29.5618 216.991 29.5618ZM230.185 31L231.386 27.5355H236.5L237.695 31H239.792L235.081 17.9091H232.799L228.088 31H230.185ZM231.962 25.8736L233.892 20.2869H233.994L235.925 25.8736H231.962ZM245.497 21.1818H243.483V18.8295H241.572V21.1818H240.134V22.7159H241.572V28.5135C241.566 30.2969 242.927 31.1598 244.436 31.1278C245.043 31.1214 245.452 31.0064 245.676 30.9233L245.331 29.3445C245.203 29.37 244.966 29.4276 244.659 29.4276C244.039 29.4276 243.483 29.223 243.483 28.1172V22.7159H245.497V21.1818Z" fill="white"/>
<path d="M139.82 65.2386C142.857 65.2386 145.829 64.5249 147.161 63.7685L146.106 60.679C144.966 61.1477 142.516 61.7656 140.065 61.7656C133.119 61.7656 129.348 58.0795 129.327 51.3466C129.348 45.2528 132.821 40.6612 139.906 40.6612C145.03 40.6612 149.792 43.1115 149.781 49.8018C149.792 53.9673 149.025 55.8636 147.555 55.8636C146.82 55.8636 146.372 55.3097 146.362 54.3189V43.9212H143.027V45.1143H142.878C142.516 44.1768 140.257 43.2926 137.86 43.6548C135.016 44.0703 131.947 46.4034 131.926 51.3466C131.947 56.3643 134.803 58.9318 138.169 59.1129C140.587 59.2514 142.761 58.2393 143.261 56.9503H143.389C143.624 58.4205 144.604 59.4219 147.075 59.2408C151.678 58.9851 153.435 55.2777 153.425 50.0469C153.435 42.4723 148.428 37.2308 139.959 37.2308C130.797 37.2308 125.545 42.9091 125.534 51.4744C125.545 60.1783 130.754 65.2386 139.82 65.2386ZM139.33 55.608C136.55 55.608 135.612 53.4773 135.602 51.2188C135.612 48.7898 136.944 47.2024 139.309 47.2024C142.004 47.2024 142.814 48.63 142.825 51.1868C142.857 54.0845 141.94 55.608 139.33 55.608ZM156.805 62H170.771V58.1967H161.417V40.1818H156.805V62ZM173.741 62H178.279V45.6364H173.741V62ZM176.021 43.527C177.374 43.527 178.482 42.4936 178.482 41.2259C178.482 39.9688 177.374 38.9354 176.021 38.9354C174.678 38.9354 173.57 39.9688 173.57 41.2259C173.57 42.4936 174.678 43.527 176.021 43.527ZM186.453 52.5398C186.464 50.4304 187.721 49.1946 189.553 49.1946C191.375 49.1946 192.472 50.3878 192.461 52.3906V62H197V51.581C197 47.767 194.763 45.4233 191.354 45.4233C188.925 45.4233 187.167 46.6165 186.432 48.5234H186.24V45.6364H181.915V62H186.453V52.5398ZM208.034 62.3196C212.082 62.3196 214.81 60.3487 215.449 57.3125L211.251 57.0355C210.793 58.282 209.621 58.9318 208.109 58.9318C205.839 58.9318 204.401 57.4297 204.401 54.9901V54.9794H215.545V53.733C215.545 48.1719 212.178 45.4233 207.853 45.4233C203.038 45.4233 199.916 48.843 199.916 53.8928C199.916 59.081 202.995 62.3196 208.034 62.3196ZM204.401 52.1669C204.497 50.3026 205.914 48.8111 207.928 48.8111C209.898 48.8111 211.262 50.2173 211.273 52.1669H204.401Z" fill="white"/>
</svg>
