<svg width="300" height="80" viewBox="0 0 300 80" fill="none" xmlns="http://www.w3.org/2000/svg">
<rect width="300" height="80" fill="#FFD800"/>
<path d="M89.5 59C88 60 87.2282 60.3154 86.2095 60.3154H50.6971C47.5328 60.3154 45.9547 58.7509 45.9547 55.594V31.3081C45.9547 28.1553 47.5286 26.5867 50.6971 26.5867H86.2095C89.3738 26.5867 90.9477 28.1512 90.9477 31.3081V47.9073L94.6422 50.9705V31.3081C94.6422 26.6763 90.8583 22.9063 86.2095 22.9063H85.2365C84.5254 18.987 81.0825 16 76.9451 16H44.4328C39.7839 16 34 22.7701 34 27.4019V49.6919C34 54.3237 36.7839 57.0937 41.4328 57.0937H42.4058C43.1168 61.0129 46.5598 64 50.6971 64H86.2095C88.1097 64 89.8603 63.362 91.27 62.3014L89.5 59ZM41.4286 54.4133C38.2642 54.4133 36.6903 52.8488 36.6903 49.6919V27.4019C36.6903 24.2491 41.2642 18.6846 44.4286 18.6846H76.9409C79.5855 18.6846 81.8143 20.4785 82.4754 22.9063H50.693C46.0442 22.9063 42.2602 26.6763 42.2602 31.3081V54.4091H41.4286V54.4133Z" fill="#111111"/>
<path d="M59.0059 31.1465H51.0059V34.1465H59.0059V31.1465Z" fill="#111111"/>
<path d="M76.2061 31.1465H70.2061V34.1465H76.2061V31.1465Z" fill="#111111"/>
<path d="M67.0415 31.1465H62.0415V34.1465H67.0415V31.1465Z" fill="#111111"/>
<path d="M86.6636 31.1465H78.6636V34.1465H86.6636V31.1465Z" fill="#111111"/>
<path d="M59.0059 52.7559H51.0059V55.7559H59.0059V52.7559Z" fill="#111111"/>
<path d="M67.0415 52.7559H62.0415V55.7559H67.0415V52.7559Z" fill="#111111"/>
<path d="M86.3892 36.5488H78.3892V39.5488H86.3892V36.5488Z" fill="#111111"/>
<path d="M67.1846 36.5488H59.1846V39.5488H67.1846V36.5488Z" fill="#111111"/>
<path d="M76.3457 36.5488H70.3457V39.5488H76.3457V36.5488Z" fill="#111111"/>
<path d="M57.0059 36.5488H51.0059V39.5488H57.0059V36.5488Z" fill="#111111"/>
<path d="M59.0059 41.9521H51.0059V44.9521H59.0059V41.9521Z" fill="#111111"/>
<path d="M78.2061 41.9521H70.2061V44.9521H78.2061V41.9521Z" fill="#111111"/>
<path d="M67.0415 41.9521H62.0415V44.9521H67.0415V41.9521Z" fill="#111111"/>
<path d="M67.1846 47.3535H59.1846V50.3535H67.1846V47.3535Z" fill="#111111"/>
<path d="M75.3457 47.3535H70.3457V50.3535H75.3457V47.3535Z" fill="#111111"/>
<path d="M57.0059 47.3535H51.0059V50.3535H57.0059V47.3535Z" fill="#111111"/>
<path d="M87.3677 48.6914C87.3677 48.6914 87.3469 48.6914 87.3053 48.6914C87.0184 48.6914 85.7917 48.7535 85.0017 49.7769C84.1035 50.941 84.5567 52.333 84.5567 52.333L99.0604 63.4527C99.0604 63.4527 99.0895 63.4527 99.1436 63.4527C99.4679 63.4527 100.703 63.3864 101.464 62.3962C102.35 61.2486 101.871 59.811 101.871 59.811L87.3677 48.6914Z" fill="#111111"/>
<path d="M83.0678 50.9008C83.0678 50.9008 82.5356 48.6346 85.3423 47.6195L80.2319 46.4844L83.0678 50.9008Z" fill="#111111"/>
<path d="M114.438 17.9091V31H116.317V21.5206H116.439L120.3 30.9808H121.859L125.72 21.527H125.842V31H127.721V17.9091H125.324L121.156 28.0852H121.003L116.835 17.9091H114.438ZM136.839 26.9283C136.845 28.5966 135.605 29.3892 134.531 29.3892C133.349 29.3892 132.53 28.5327 132.53 27.1967V21.1818H130.619V27.4268C130.619 29.8622 131.955 31.1278 133.841 31.1278C135.317 31.1278 136.321 30.348 136.775 29.2997H136.877V31H138.756V21.1818H136.839V26.9283ZM143.415 25.1705C143.415 23.6044 144.374 22.7095 145.704 22.7095C147.001 22.7095 147.788 23.5597 147.788 24.9851V31H149.699V24.755C149.699 22.326 148.363 21.054 146.356 21.054C144.879 21.054 143.914 21.7379 143.46 22.7798H143.339V21.1818H141.504V31H143.415V25.1705ZM152.442 31H154.353V27.5163L155.306 26.5639L158.642 31H160.988L156.744 25.3942L160.72 21.1818H158.431L154.519 25.3366H154.353V17.9091H152.442V31ZM166.373 31.1982C169.141 31.1982 170.95 29.1719 170.95 26.1357C170.95 23.0803 169.141 21.054 166.373 21.054C163.605 21.054 161.796 23.0803 161.796 26.1357C161.796 29.1719 163.605 31.1982 166.373 31.1982ZM166.379 29.5938C164.57 29.5938 163.727 28.0149 163.727 26.1293C163.727 24.25 164.57 22.652 166.379 22.652C168.175 22.652 169.019 24.25 169.019 26.1293C169.019 28.0149 168.175 29.5938 166.379 29.5938ZM175.174 25.1705C175.174 23.6044 176.133 22.7095 177.463 22.7095C178.76 22.7095 179.546 23.5597 179.546 24.9851V31H181.458V24.755C181.458 22.326 180.122 21.054 178.114 21.054C176.638 21.054 175.673 21.7379 175.219 22.7798H175.097V21.1818H173.263V31H175.174V25.1705ZM188.317 34.8864C190.817 34.8864 192.747 33.7422 192.747 31.2173V21.1818H190.874V22.7734H190.733C190.395 22.1662 189.717 21.054 187.889 21.054C185.518 21.054 183.772 22.9268 183.772 26.0526C183.772 29.1847 185.556 30.853 187.876 30.853C189.679 30.853 190.375 29.8366 190.721 29.2102H190.842V31.1406C190.842 32.6811 189.787 33.3459 188.336 33.3459C186.745 33.3459 186.125 32.5469 185.786 31.9844L184.143 32.6619C184.661 33.8636 185.971 34.8864 188.317 34.8864ZM188.298 29.2678C186.591 29.2678 185.703 27.9574 185.703 26.027C185.703 24.1413 186.572 22.6776 188.298 22.6776C189.966 22.6776 190.861 24.0391 190.861 26.027C190.861 28.0533 189.947 29.2678 188.298 29.2678ZM209.447 22.0447H211.473C211.032 19.4943 208.852 17.7301 206.027 17.7301C202.639 17.7301 200.165 20.2805 200.165 24.4609C200.165 28.603 202.569 31.179 206.116 31.179C209.293 31.179 211.562 29.0952 211.562 25.7905V24.3011H206.417V25.9311H209.651C209.606 28.0405 208.213 29.3764 206.116 29.3764C203.809 29.3764 202.128 27.6314 202.128 24.4482C202.128 21.2777 203.822 19.5327 206.04 19.5327C207.778 19.5327 208.954 20.4915 209.447 22.0447ZM216.953 31.2173C218.577 31.2173 219.491 30.3928 219.855 29.6577H219.932V31H221.799V24.4801C221.799 21.6229 219.549 21.054 217.989 21.054C216.212 21.054 214.576 21.7699 213.936 23.5597L215.733 23.9688C216.014 23.272 216.73 22.6009 218.015 22.6009C219.248 22.6009 219.881 23.2464 219.881 24.3587V24.4034C219.881 25.1001 219.165 25.0874 217.401 25.2919C215.541 25.5092 213.636 25.995 213.636 28.2259C213.636 30.1562 215.087 31.2173 216.953 31.2173ZM217.369 29.6832C216.289 29.6832 215.509 29.1974 215.509 28.2514C215.509 27.2287 216.417 26.8643 217.522 26.7173C218.142 26.6342 219.613 26.468 219.887 26.1932V27.4588C219.887 28.6222 218.961 29.6832 217.369 29.6832ZM228.2 31.1918C229.989 31.1918 230.693 30.0987 231.038 29.4723H231.198V31H233.064V17.9091H231.153V22.7734H231.038C230.693 22.1662 230.041 21.054 228.212 21.054C225.841 21.054 224.096 22.9268 224.096 26.1101C224.096 29.2869 225.815 31.1918 228.2 31.1918ZM228.622 29.5618C226.915 29.5618 226.026 28.0597 226.026 26.0909C226.026 24.1413 226.896 22.6776 228.622 22.6776C230.29 22.6776 231.185 24.0391 231.185 26.0909C231.185 28.1555 230.271 29.5618 228.622 29.5618ZM240.088 34.8864C242.588 34.8864 244.518 33.7422 244.518 31.2173V21.1818H242.645V22.7734H242.505C242.166 22.1662 241.488 21.054 239.66 21.054C237.289 21.054 235.544 22.9268 235.544 26.0526C235.544 29.1847 237.327 30.853 239.647 30.853C241.45 30.853 242.147 29.8366 242.492 29.2102H242.613V31.1406C242.613 32.6811 241.558 33.3459 240.107 33.3459C238.516 33.3459 237.896 32.5469 237.557 31.9844L235.914 32.6619C236.432 33.8636 237.742 34.8864 240.088 34.8864ZM240.069 29.2678C238.362 29.2678 237.474 27.9574 237.474 26.027C237.474 24.1413 238.343 22.6776 240.069 22.6776C241.737 22.6776 242.632 24.0391 242.632 26.027C242.632 28.0533 241.718 29.2678 240.069 29.2678ZM251.493 31.1982C253.634 31.1982 255.149 30.1435 255.584 28.5455L253.775 28.2195C253.43 29.1463 252.599 29.6193 251.512 29.6193C249.876 29.6193 248.776 28.5582 248.725 26.6662H255.705V25.9886C255.705 22.4411 253.583 21.054 251.359 21.054C248.623 21.054 246.82 23.1378 246.82 26.1548C246.82 29.2038 248.597 31.1982 251.493 31.1982ZM248.731 25.2344C248.808 23.8409 249.818 22.6328 251.371 22.6328C252.854 22.6328 253.826 23.7322 253.832 25.2344H248.731ZM262.589 21.1818H260.575V18.8295H258.664V21.1818H257.226V22.7159H258.664V28.5135C258.658 30.2969 260.019 31.1598 261.528 31.1278C262.135 31.1214 262.544 31.0064 262.768 30.9233L262.423 29.3445C262.295 29.37 262.058 29.4276 261.751 29.4276C261.131 29.4276 260.575 29.223 260.575 28.1172V22.7159H262.589V21.1818Z" fill="#111111"/>
<path d="M120.808 62H125.303L129.447 47.7351H129.618L133.773 62H138.268L144.511 40.1818H139.472L135.861 55.3736H135.669L131.695 40.1818H127.381L123.396 55.3416H123.215L119.604 40.1818H114.565L120.808 62ZM152.595 62.3196C156.643 62.3196 159.37 60.3487 160.009 57.3125L155.812 57.0355C155.354 58.282 154.182 58.9318 152.669 58.9318C150.4 58.9318 148.962 57.4297 148.962 54.9901V54.9794H160.105V53.733C160.105 48.1719 156.739 45.4233 152.414 45.4233C147.598 45.4233 144.477 48.843 144.477 53.8928C144.477 59.081 147.556 62.3196 152.595 62.3196ZM148.962 52.1669C149.058 50.3026 150.475 48.8111 152.488 48.8111C154.459 48.8111 155.823 50.2173 155.833 52.1669H148.962ZM163.152 62H167.627V59.3793H167.829C168.458 60.7429 169.832 62.2663 172.474 62.2663C176.203 62.2663 179.111 59.3153 179.111 53.8395C179.111 48.2145 176.075 45.4233 172.485 45.4233C169.747 45.4233 168.436 47.0533 167.829 48.3849H167.691V40.1818H163.152V62ZM167.595 53.8182C167.595 50.8991 168.83 49.0348 171.036 49.0348C173.284 49.0348 174.477 50.9844 174.477 53.8182C174.477 56.6733 173.262 58.6548 171.036 58.6548C168.852 58.6548 167.595 56.7372 167.595 53.8182ZM182.224 62H186.699V59.3793H186.901C187.53 60.7429 188.904 62.2663 191.546 62.2663C195.275 62.2663 198.183 59.3153 198.183 53.8395C198.183 48.2145 195.147 45.4233 191.557 45.4233C188.819 45.4233 187.509 47.0533 186.901 48.3849H186.763V40.1818H182.224V62ZM186.667 53.8182C186.667 50.8991 187.903 49.0348 190.108 49.0348C192.356 49.0348 193.549 50.9844 193.549 53.8182C193.549 56.6733 192.335 58.6548 190.108 58.6548C187.924 58.6548 186.667 56.7372 186.667 53.8182ZM208.605 62.3196C213.569 62.3196 216.659 58.9212 216.659 53.8821C216.659 48.8111 213.569 45.4233 208.605 45.4233C203.64 45.4233 200.551 48.8111 200.551 53.8821C200.551 58.9212 203.64 62.3196 208.605 62.3196ZM208.626 58.804C206.336 58.804 205.164 56.7053 205.164 53.8501C205.164 50.995 206.336 48.8857 208.626 48.8857C210.874 48.8857 212.046 50.995 212.046 53.8501C212.046 56.7053 210.874 58.804 208.626 58.804ZM224.276 62.3089C226.694 62.3089 228.26 61.2543 229.059 59.7308H229.187V62H233.491V50.9631C233.491 47.0639 230.189 45.4233 226.545 45.4233C222.625 45.4233 220.047 47.2983 219.418 50.2812L223.616 50.6222C223.925 49.5355 224.894 48.7365 226.524 48.7365C228.069 48.7365 228.953 49.5142 228.953 50.8565V50.9205C228.953 51.9751 227.834 52.1136 224.99 52.3906C221.751 52.6889 218.843 53.7756 218.843 57.4297C218.843 60.6683 221.155 62.3089 224.276 62.3089ZM225.576 59.1768C224.18 59.1768 223.179 58.527 223.179 57.2805C223.179 56.0021 224.233 55.3736 225.831 55.1499C226.822 55.0114 228.442 54.777 228.985 54.4148V56.1513C228.985 57.8665 227.568 59.1768 225.576 59.1768ZM237.012 62H241.551V52.7422C241.551 50.7287 243.021 49.3438 245.024 49.3438C245.652 49.3438 246.515 49.4503 246.941 49.5888V45.5618C246.536 45.4659 245.972 45.402 245.514 45.402C243.681 45.402 242.179 46.4673 241.583 48.4915H241.412V45.6364H237.012V62ZM254.556 62.2663C257.198 62.2663 258.572 60.7429 259.201 59.3793H259.392V62H263.867V40.1818H259.339V48.3849H259.201C258.593 47.0533 257.283 45.4233 254.545 45.4233C250.955 45.4233 247.919 48.2145 247.919 53.8395C247.919 59.3153 250.827 62.2663 254.556 62.2663ZM255.994 58.6548C253.767 58.6548 252.553 56.6733 252.553 53.8182C252.553 50.9844 253.746 49.0348 255.994 49.0348C258.199 49.0348 259.435 50.8991 259.435 53.8182C259.435 56.7372 258.178 58.6548 255.994 58.6548Z" fill="#111111"/>
</svg>
