<?xml version="1.0" encoding="UTF-8"?>
<svg id="Layer_2" data-name="Layer 2" xmlns="http://www.w3.org/2000/svg" viewBox="0 0 90 90">
  <defs>
    <style>
      .cls-1 {
        fill: #fff;
      }
    </style>
  </defs>
  <g id="Layer_1-2" data-name="Layer 1">
    <g>
      <path class="cls-1" d="m45,90C20.19,90,0,69.81,0,45S20.19,0,45,0s45,20.19,45,45-20.19,45-45,45Zm0-88.26C21.14,1.74,1.74,21.14,1.74,45s19.41,43.26,43.26,43.26,43.26-19.41,43.26-43.26S68.86,1.74,45,1.74Z"/>
      <g>
        <path class="cls-1" d="m63.73,60.42H26.27c-1.44,0-2.6-1.17-2.6-2.6v-2.27c0-.8.37-1.56,1-2.05,1.64-1.29,4.06-3.9,4.28-5.65l.12-.92c.46-3.54.93-7.2,1.15-9.84.57-6.77,5.34-12.2,11.95-13.72.62-1.16,1.71-1.74,2.66-1.81.99-.16,2.35.42,3.04,1.81,6.58,1.54,11.34,6.99,11.92,13.72.22,2.64.7,6.3,1.15,9.84l.12.92h0c.23,1.75,2.64,4.36,4.28,5.65.63.49,1,1.25,1,2.05v2.27c0,1.44-1.17,2.6-2.6,2.6Zm-37.46-4.88h.02-.02Zm4.17-.33h29.13c-1.58-1.7-3.34-4.12-3.67-6.7l-.12-.92c-.47-3.6-.95-7.32-1.18-10.07-.39-4.64-3.63-8.23-8.25-9.16-.38-.08-.84-.26-1.29-.53-.43.26-.86.43-1.22.49-4.64.86-8.03,4.55-8.42,9.19-.23,2.75-.71,6.47-1.18,10.07l-.12.92c-.33,2.57-2.1,5-3.67,6.7Zm12.68-29.74s0,0,0,0c0,0,0,0,0,0Zm-1.3-1.21s0,0,0,0c0,0,0,0,0,0Z"/>
        <path class="cls-1" d="m45,64.77c-3.83,0-6.95-3.12-6.95-6.95,0-.66.54-1.2,1.2-1.2s1.2.54,1.2,1.2c0,2.52,2.05,4.56,4.56,4.56s4.56-2.05,4.56-4.56c0-.66.54-1.2,1.2-1.2s1.2.54,1.2,1.2c0,3.83-3.12,6.95-6.95,6.95Z"/>
      </g>
    </g>
  </g>
</svg>