<?xml version="1.0" encoding="UTF-8"?>
<svg id="Layer_2" data-name="Layer 2" xmlns="http://www.w3.org/2000/svg" viewBox="0 0 90 90">
  <defs>
    <style>
      .cls-1 {
        fill: #ffd400;
      }

      .cls-2 {
        fill: #1a1a1a;
      }
    </style>
  </defs>
  <g id="Layer_1-2" data-name="Layer 1">
    <g>
      <circle class="cls-1" cx="45" cy="45" r="45"/>
      <g>
        <path class="cls-2" d="m58.99,70.65h-30.58c-1.04,0-1.88-.84-1.88-1.88V23.39c0-1.04.84-1.88,1.88-1.88h30.58c1.04,0,1.88.84,1.88,1.88v10.21c0,1.04-.84,1.88-1.88,1.88s-1.88-.84-1.88-1.88v-8.34h-26.83v41.63h26.83v-9.12c0-1.04.84-1.88,1.88-1.88s1.88.84,1.88,1.88v11c0,1.04-.84,1.88-1.88,1.88Z"/>
        <g>
          <path class="cls-2" d="m73.63,29.87h0c-1.12-1.12-2.94-1.12-4.06,0l-20.83,20.83,4.06,4.06,20.83-20.83c1.12-1.12,1.12-2.94,0-4.06Z"/>
          <path class="cls-2" d="m46.23,58.35l6.56-3.58-4.06-4.06-3.58,6.56c-.38.7.38,1.46,1.08,1.08Z"/>
        </g>
        <path class="cls-2" d="m52.02,35.94h-16.33c-1.04,0-1.88-.84-1.88-1.88s.84-1.88,1.88-1.88h16.33c1.04,0,1.88.84,1.88,1.88s-.84,1.88-1.88,1.88Z"/>
        <path class="cls-2" d="m49.02,44.61h-13.32c-1.04,0-1.88-.84-1.88-1.88s.84-1.88,1.88-1.88h13.32c1.04,0,1.88.84,1.88,1.88s-.84,1.88-1.88,1.88Z"/>
        <path class="cls-2" d="m43.01,52.7h-7.31c-1.04,0-1.88-.84-1.88-1.88s.84-1.88,1.88-1.88h7.31c1.04,0,1.88.84,1.88,1.88s-.84,1.88-1.88,1.88Z"/>
        <path class="cls-2" d="m38.5,60.4h-2.8c-1.04,0-1.88-.84-1.88-1.88s.84-1.88,1.88-1.88h2.8c1.04,0,1.88.84,1.88,1.88s-.84,1.88-1.88,1.88Z"/>
      </g>
    </g>
  </g>
</svg>