<svg width="18" height="18" viewBox="0 0 18 18" fill="none" xmlns="http://www.w3.org/2000/svg">
<path d="M13.1279 11.689L14.6225 16.3771C14.8173 16.988 14.0785 17.4785 13.5486 17.0902L9.7241 14.287C9.33946 13.9803 8.66054 13.9803 8.27591 14.287L4.45137 17.0902C3.92148 17.4785 3.18269 16.988 3.37747 16.3771L4.87213 11.689C4.99604 11.274 4.75434 10.6618 4.37907 10.4224L0.27643 7.45797C-0.253536 7.07504 0.0294736 6.26698 0.693556 6.26698H5.582C6.04508 6.26698 6.52774 5.87132 6.65496 5.44524L8.41615 0.79063C8.64217 0.193302 9.53202 0.213089 9.7288 0.819817L11.2426 5.48829C11.3698 5.91437 11.8371 6.26698 12.3001 6.26698H17.3064C17.9705 6.26698 18.2535 7.07504 17.7236 7.45797L13.6209 10.4224C13.2457 10.6618 13.004 11.274 13.1279 11.689Z" fill="#FFD800"/>
</svg>
