<svg width="15" height="17" viewBox="0 0 15 17" fill="none" xmlns="http://www.w3.org/2000/svg">
<path d="M12.2 3.4502C11.35 2.8702 10.73 1.97016 10.55 0.910156C10.51 0.690156 10.49 0.460469 10.49 0.230469H7.60999V0.240234V11.3398C7.60999 12.5998 6.58001 13.6299 5.32001 13.6299C4.92001 13.6299 4.55001 13.5296 4.23001 13.3496C3.52001 12.9596 3.03 12.1998 3.03 11.3398C3.03 10.0798 4.06001 9.0498 5.32001 9.0498C5.44001 9.0498 5.68 9.05039 6.09 9.15039V6.84961V6.21973C5.78 6.17973 5.53001 6.16992 5.32001 6.16992C2.47001 6.16992 0.149994 8.48984 0.149994 11.3398C0.149994 13.0598 1.00001 14.5903 2.29001 15.5303C3.14001 16.1503 4.19001 16.5098 5.32001 16.5098C8.17001 16.5098 10.49 14.1898 10.49 11.3398V5.75977C11.59 6.52977 12.92 6.99023 14.37 6.99023V4.71973V4.12012C13.56 4.11012 12.82 3.8702 12.2 3.4502Z" fill="white"/>
</svg>
