<?xml version="1.0" encoding="UTF-8"?>
<svg id="Layer_2" data-name="Layer 2" xmlns="http://www.w3.org/2000/svg" viewBox="0 0 90 90">
  <defs>
    <style>
      .cls-1 {
        fill: #000;
      }
    </style>
  </defs>
  <g id="Layer_1-2" data-name="Layer 1">
    <g>
      <path class="cls-1" d="m45,90C20.19,90,0,69.81,0,45S20.19,0,45,0s45,20.19,45,45-20.19,45-45,45Zm0-88.26C21.14,1.74,1.74,21.14,1.74,45s19.41,43.26,43.26,43.26,43.26-19.41,43.26-43.26S68.86,1.74,45,1.74Z"/>
      <g>
        <path class="cls-1" d="m66.5,63.48h-5.21c0-1.91-.33-3.77-.97-5.55-2.33-6.43-8.49-10.74-15.32-10.74s-13.24,4.48-15.46,11.14c-.55,1.66-.83,3.39-.83,5.15h-5.21c0-2.32.37-4.61,1.1-6.8,2.93-8.8,11.13-14.71,20.41-14.71s17.15,5.7,20.22,14.18c.85,2.34,1.28,4.81,1.28,7.32Z"/>
        <path class="cls-1" d="m45,47.18c-6.76,0-12.26-5.5-12.26-12.26s5.5-12.26,12.26-12.26,12.26,5.5,12.26,12.26-5.5,12.26-12.26,12.26Zm0-19.31c-3.89,0-7.05,3.16-7.05,7.05s3.16,7.05,7.05,7.05,7.05-3.16,7.05-7.05-3.16-7.05-7.05-7.05Z"/>
      </g>
    </g>
  </g>
</svg>