<svg width="24" height="17" viewBox="0 0 24 17" fill="none" xmlns="http://www.w3.org/2000/svg">
<path d="M23.42 3.26953C23.23 1.74953 21.93 0.650078 20.36 0.580078C20 0.560078 16.41 0.230469 12.16 0.230469C7.36 0.230469 3.95999 0.580078 3.95999 0.580078C2.38999 0.580078 1.08999 1.74953 0.899994 3.26953C0.829994 3.78953 0.529999 5.70988 0.529999 8.37988C0.529999 11.4999 0.889994 13.3997 0.899994 13.4697C1.06999 14.8097 2.09999 15.8901 3.42999 16.1201C3.54999 16.1501 5.66 16.5098 12.16 16.5098C18.19 16.5098 20.77 16.1501 20.89 16.1201C22.21 15.8901 23.25 14.8197 23.42 13.4697C23.44 13.3997 23.79 11.5899 23.79 8.37988C23.79 5.48988 23.43 3.33953 23.42 3.26953ZM9.82001 11.8896V4.91992L15.88 8.41016L9.82001 11.8896Z" fill="white"/>
</svg>
