<?xml version="1.0" encoding="UTF-8"?>
<svg id="Layer_2" data-name="Layer 2" xmlns="http://www.w3.org/2000/svg" viewBox="0 0 307.82 68.94">
  <defs>
    <style>
      .cls-1 {
        fill: #fff;
      }

      .cls-2 {
        fill: #eda23b;
      }

      .cls-3 {
        fill: #ff0;
      }
    </style>
  </defs>
  <g id="Layer_1-2" data-name="Layer 1">
    <g>
      <g>
        <path class="cls-1" d="m230.17,42.37l-3.49,8.05h-9.52l16.68-34.22h11.6l3.75,34.22h-9.36l-.4-8.05h-9.26Zm8.93-6.54l-.39-6.28c-.13-1.92-.26-4.77-.43-6.89h-.1c-.9,2.12-1.9,5-2.8,6.92l-2.7,6.26h6.42Z"/>
        <path class="cls-1" d="m259.37,16.2h8.88l-5.16,26.65h13.21l-1.46,7.56h-22.11l6.64-34.22Z"/>
        <path class="cls-1" d="m303.09,36.59h-12.35l-1.28,6.45h13.87l-1.43,7.37h-22.77l6.64-34.22h22.04l-1.47,7.36h-13.08l-1.15,5.75h12.41l-1.45,7.28Z"/>
      </g>
      <polygon class="cls-2" points="191.19 0 180.22 33.33 182.78 37.12 198.33 37.12 189.71 65.15 192.28 68.94 221.39 28.03 218.82 24.24 204.27 24.24 212.58 3.79 210.01 0 191.19 0"/>
      <polygon class="cls-3" points="191.19 0 180.22 33.33 198.97 33.33 189.71 65.15 218.82 24.24 200.17 24.24 210.01 0 191.19 0"/>
      <g>
        <path class="cls-1" d="m6.64,16.2h21.8l-1.47,7.36h-12.84l-1.3,6.54h12.14l-1.45,7.29h-12.11l-2.51,13.03H0L6.64,16.2Z"/>
        <path class="cls-1" d="m34.25,16.2h8.88l-5.16,26.65h13.21l-1.46,7.56h-22.11l6.64-34.22Z"/>
        <path class="cls-1" d="m65.69,42.37l-3.49,8.05h-9.52l16.68-34.22h11.6l3.75,34.22h-9.36l-.4-8.05h-9.26Zm8.93-6.54l-.39-6.28c-.13-1.92-.26-4.77-.43-6.89h-.1c-.9,2.12-1.9,5-2.8,6.92l-2.7,6.26h6.42Z"/>
        <path class="cls-1" d="m90.2,41.35c2.14,1.19,5.25,2.16,8.65,2.16,2.45.03,4.68-.89,4.68-2.92,0-1.7-1.56-2.65-4.57-4.19-3.4-1.75-7.4-4.42-7.4-9.18,0-7.26,6.54-11.56,14.68-11.56,4.65,0,7.15.86,8.8,1.64l-2.73,7.25c-1.16-.58-3.79-1.52-6.72-1.45-3.15,0-4.65,1.23-4.65,2.69,0,1.65,2.32,2.74,4.99,4.21,4.25,2.13,7.07,4.94,7.07,9,0,8.34-7.21,11.94-14.99,11.94-5.47,0-9-1.33-10.73-2.48l2.93-7.12Z"/>
        <path class="cls-1" d="m131.37,16.2l-2.5,12.87h11.25l2.5-12.87h8.92l-6.64,34.22h-8.92l2.64-13.62h-11.27l-2.63,13.62h-8.88l6.64-34.22h8.88Z"/>
      </g>
    </g>
  </g>
</svg>