<?xml version="1.0" encoding="UTF-8"?>
<svg id="Layer_2" data-name="Layer 2" xmlns="http://www.w3.org/2000/svg" viewBox="0 0 232 78">
  <defs>
    <style>
      .cls-1 {
        fill: #fff;
      }

      .cls-2 {
        fill: #3dc141;
      }
    </style>
  </defs>
  <g id="Layer_1-2" data-name="Layer 1">
    <g>
      <rect class="cls-2" x="0" width="232" height="78" rx="10.4" ry="10.4"/>
      <path class="cls-1" d="m54.6,12c-15.5,0-28,10.3-28,23s10.7,21.5,24.6,22.9c.5,0,2-.2,1.7,2.4-.2,1.4-.6,3.6-.3,4.7.2.9,1.1.9,2.1.5,2.9-1.3,13.6-7.8,21.1-15.2,4.2-4.2,6.9-9.4,6.9-15.2,0-12.7-12.6-23-28-23Zm-10.2,30.9h-9.3v-14.5h3.1v11.4h6.2v3.1Zm5.1,0h-3.1v-14.5h3.1v14.5Zm14.5,0h-3.1l-6.2-8.3v8.3h-3.1v-14.5h3.1l6.2,8.4v-8.4h3.1v14.5Zm11.3-11.4h-6.2v2.6h6.2v3.1h-6.2v2.6h6.2v3.1h-9.3v-14.5h9.3v3.1Z"/>
      <g>
        <path class="cls-1" d="m99.8,61.4c-.4,0-.6-.2-.6-.6v-28.1c0-.4.2-.6.6-.6h6.2c.4,0,.6.2.6.6v21.6h12.9c.4,0,.6.2.6.6v5.8c0,.4-.2.6-.6.6h-19.7Z"/>
        <path class="cls-1" d="m127.7,61.4c-.4,0-.6-.2-.6-.6v-28.1c0-.4.2-.6.6-.6h6.2c.4,0,.6.2.6.6v28.1c0,.4-.2.6-.6.6h-6.2Z"/>
        <path class="cls-1" d="m143.9,61.4c-.4,0-.6-.2-.6-.6v-28.1c0-.4.2-.6.6-.6h6.5c.3,0,.5.1.8.4l10.5,17.4v-17.2c0-.4.2-.6.6-.6h5.9c.4,0,.6.2.6.6v28.1c0,.4-.2.6-.6.6h-6.4c-.3,0-.6-.1-.8-.4l-10.5-17.5v17.3c0,.4-.2.6-.6.6h-5.9Z"/>
        <path class="cls-1" d="m178.1,61.4c-.4,0-.6-.2-.6-.6v-28.1c0-.4.2-.6.6-.6h19.3c.4,0,.6.2.6.6v5.2c0,.4-.2.6-.6.6h-12.6v4.8h11.1c.4,0,.6.2.6.6v5c0,.4-.2.6-.6.6h-11.1v5.4h13c.4,0,.6.2.6.6v5.2c0,.4-.2.6-.6.6h-19.8Z"/>
      </g>
      <g>
        <path class="cls-1" d="m99.7,27.8c-.1,0-.2,0-.2-.2v-10.7c0,0,0-.1.2-.1h3.6c.8,0,1.5.1,2.1.4.5.2.9.6,1.2,1,.3.4.4.9.4,1.4s-.1,1.1-.4,1.5c-.3.4-.7.7-1.2.9.7.2,1.3.5,1.6,1,.4.5.5,1,.5,1.7s-.1,1.1-.4,1.6-.7.8-1.3,1.1c-.6.3-1.3.4-2.3.4h-3.8Zm3.5-9.8h-2.4v3.6h2.5c.8,0,1.4-.2,1.8-.5s.6-.8.6-1.3-.2-1-.6-1.3c-.4-.3-1-.5-1.8-.5Zm.3,4.7h-2.7v3.9h2.7c.9,0,1.6-.2,2-.5.4-.3.7-.8.7-1.5s-.2-1.1-.7-1.4c-.4-.3-1.1-.5-2-.5Z"/>
        <path class="cls-1" d="m112.6,27.9c-.8,0-1.4-.2-2-.5-.6-.3-1-.8-1.3-1.4-.3-.6-.5-1.3-.5-2s.2-1.4.5-2c.3-.6.7-1.1,1.3-1.4.6-.3,1.2-.5,2-.5s1.4.2,1.9.5c.5.4.9.8,1.2,1.5.3.6.4,1.3.4,2.2,0,.1,0,.2-.2.2h-5.7c0,.8.3,1.3.8,1.8.4.4,1,.7,1.7.7s1-.1,1.4-.3c.4-.2.6-.5.8-.9,0,0,.1-.1.2,0l.8.3c.1,0,.1.1,0,.2-.3.7-.8,1.2-1.3,1.5-.6.3-1.2.5-1.9.5Zm0-6.8c-.7,0-1.2.2-1.6.6-.4.4-.7,1-.8,1.7h4.6c0-.7-.3-1.2-.6-1.7-.4-.4-.9-.6-1.5-.6Z"/>
        <path class="cls-1" d="m120.4,27.8c-.1,0-.2,0-.1-.2l4.4-10.7c0,0,.1-.1.2-.1h.9c0,0,.1,0,.2.1l4.4,10.7c0,.1,0,.2-.1.2h-1.1c0,0-.1,0-.2-.1l-1-2.6h-5.2l-1,2.6c0,0-.1.1-.2.1h-1Zm2.7-3.9h4.3l-2.2-5.5-2.1,5.5Z"/>
        <path class="cls-1" d="m135.6,27.8c-.1,0-.2,0-.2-.2v-10.7c0,0,0-.1.2-.1h6.4c.1,0,.2,0,.2.1v.9c0,.1,0,.2-.2.2h-5.3v3.8h4.7c.1,0,.2,0,.2.2v.9c0,.1,0,.2-.2.2h-4.7v4.7c0,.1,0,.2-.2.2h-.9Z"/>
        <path class="cls-1" d="m143.7,27.8c-.1,0-.2,0-.2-.2v-7.3c0,0,0-.2.2-.2h.8c.1,0,.2,0,.2.2v1.3c.3-.5.7-.9,1.1-1.2.5-.3,1-.4,1.5-.4h.2c0,0,.1,0,.2,0,0,0,.1,0,.1.2v.9c0,.1,0,.2-.2.2,0,0-.1,0-.2,0s-.2,0-.3,0c-.4,0-.8.1-1.2.3-.4.2-.7.5-.9.9-.2.4-.3.8-.3,1.2v3.9c0,.1,0,.2-.2.2h-.9Z"/>
        <path class="cls-1" d="m149.9,18.5c-.2,0-.4,0-.6-.2-.2-.1-.2-.3-.2-.5s0-.4.2-.6c.2-.1.3-.2.6-.2s.4,0,.6.2c.1.1.2.3.2.6s0,.4-.2.5c-.2.1-.3.2-.6.2Zm-.4,9.3c-.1,0-.2,0-.2-.2v-7.3c0,0,0-.2.2-.2h.9c0,0,.2,0,.2.2v7.3c0,.1,0,.2-.2.2h-.9Z"/>
        <path class="cls-1" d="m156,27.9c-.8,0-1.4-.2-2-.5-.6-.3-1-.8-1.3-1.4-.3-.6-.5-1.3-.5-2s.2-1.4.5-2c.3-.6.7-1.1,1.3-1.4.6-.3,1.2-.5,2-.5s1.4.2,1.9.5c.5.4.9.8,1.2,1.5.3.6.4,1.3.4,2.2,0,.1,0,.2-.2.2h-5.7c0,.8.3,1.3.8,1.8.4.4,1,.7,1.7.7s1-.1,1.4-.3c.4-.2.6-.5.8-.9,0,0,.1-.1.2,0l.8.3c.1,0,.1.1,0,.2-.3.7-.8,1.2-1.3,1.5-.6.3-1.2.5-1.9.5Zm0-6.8c-.7,0-1.2.2-1.6.6-.4.4-.7,1-.8,1.7h4.6c0-.7-.3-1.2-.6-1.7-.4-.4-.9-.6-1.5-.6Z"/>
        <path class="cls-1" d="m161.3,27.8c-.1,0-.2,0-.2-.2v-7.3c0,0,0-.2.2-.2h.8c.1,0,.2,0,.2.2v1.2c.3-.5.7-.9,1.2-1.1.5-.2,1-.4,1.5-.4.9,0,1.5.2,2,.7.5.5.7,1.2.7,2.1v4.8c0,.1,0,.2-.1.2h-.9c-.1,0-.2,0-.2-.2v-4.3c0-.7-.1-1.3-.4-1.6-.3-.4-.8-.5-1.4-.5s-.7,0-1.1.3c-.4.2-.7.5-.9.9-.2.4-.4.9-.4,1.5v3.8c0,.1,0,.2-.2.2h-.9Z"/>
        <path class="cls-1" d="m173.1,27.9c-.7,0-1.4-.2-1.9-.5-.5-.3-1-.8-1.3-1.4-.3-.6-.4-1.3-.4-2s.1-1.5.4-2c.3-.6.7-1.1,1.3-1.4.5-.3,1.2-.5,1.9-.5s1.1.1,1.6.4.9.6,1.1,1v-4.8c0-.1,0-.2.2-.2h.9c0,0,.2,0,.2.2v10.9c0,.1,0,.2-.2.2h-.8c-.1,0-.2,0-.2-.2v-1.2c-.3.5-.7.8-1.2,1.1-.5.3-1,.4-1.6.4Zm.2-1.1c.5,0,1-.1,1.4-.4.4-.2.7-.6.9-1,.2-.4.3-.9.3-1.5s-.1-1.1-.3-1.5c-.2-.4-.5-.8-.9-1-.4-.2-.8-.4-1.4-.4s-1,.1-1.4.4c-.4.2-.7.6-.9,1s-.3.9-.3,1.5.1,1.1.3,1.5c.2.4.5.8.9,1,.4.2.8.4,1.4.4Z"/>
        <path class="cls-1" d="m182.1,27.8c-.1,0-.2,0-.1-.2l4.4-10.7c0,0,.1-.1.2-.1h.9c0,0,.1,0,.2.1l4.4,10.7c0,.1,0,.2-.1.2h-1.1c0,0-.1,0-.2-.1l-1-2.6h-5.2l-1,2.6c0,0-.1.1-.2.1h-1Zm2.7-3.9h4.3l-2.2-5.5-2.1,5.5Z"/>
        <path class="cls-1" d="m195.6,27.9c-.7,0-1.2-.2-1.6-.7-.4-.4-.6-1.1-.6-2.1v-3.9h-1.3c-.1,0-.1,0-.1-.1v-.8c0,0,0-.2.1-.2h1.3v-2.3c0,0,0-.1.1-.1h.9c.1,0,.2,0,.2.1v2.3h2.1c0,0,.1,0,.1.2v.8c0,0,0,.1-.1.1h-2.1v3.9c0,.6,0,1,.3,1.2.2.3.5.4.8.4s.8-.2,1-.7c0,0,.1-.1.2,0l.7.3c0,0,.1.1,0,.3-.2.5-.5.8-.9,1-.4.2-.7.3-1.1.3Z"/>
      </g>
    </g>
  </g>
</svg>