<?xml version="1.0" encoding="UTF-8"?>
<svg id="Layer_2" data-name="Layer 2" xmlns="http://www.w3.org/2000/svg" viewBox="0 0 211.16 52.14">
  <defs>
    <style>
      .cls-1 {
        fill: #fff;
      }

      .cls-2 {
        fill: #ff0;
      }
    </style>
  </defs>
  <g id="Layer_1-2" data-name="Layer 1">
    <g>
      <circle cx="26.07" cy="26.07" r="26.07" transform="translate(-5.29 6.69) rotate(-13.28)"/>
      <path class="cls-2" d="m17.5,46.97c-1.71-2.3-2.46-4.62-2.44-5.4,0,0,0-.02,0-.02l-.02-.22-.02-.57c-1.2.5-2.99.79-4.5-.87.16-.21.32-.46.46-.79.68-1.63.55-4.5-.34-7.47-1.11-3.69-3.04-7.25-5.38-6.37-.1-.44-.18-1.13,0-1.87.18-.53.88-1.1,1.66-1.45.02-.01.05-.02.07-.03.82-.24,2.04-.55,2.66-.49.5.05,1.25.46,1.93,1.25,2.67,3.12,6.32,10.27,4.8,17.32,0,0-.06.05-.18.13l-.03,1h0v.2s0,.01,0,.02v.02c-.02.32.44,2.55,2.82,5.77.86,1.17,2.31,2.53,4.1,3.99.89.1,1.79.16,2.7.17h.57c.6,0,1.2-.03,1.79-.08-2.8-2.11-4.44-4.35-4.44-4.35,3.49,3.01,5.36,3.91,6.07,4.17,4.2-.62,8.06-2.27,11.32-4.7-.91-.54-1.84-.47-2.32-.31,0,0,.56-3.06-3.72-2.88,0,0-1.76.47-3.16-.46,0,0,4.27.37,5.02-.37.74-.74,3.53-1.95,4.27-2.42.75-.46-3.44-.83-5.95-.18,0,0-3.25-.09-6.41,2.41,0,0,2.14-2.32,4.09-2.6,1.95-.28,2.7-.37,3.25-.56.56-.19,2.6-.28,4.83.09,0,0-2.52-2.41-5.5-2.04,0,0,3.34-.47,5.68,1.21,1.85,1.32,3.34,1.58,2.32.28-1.02-1.3-5.3-2.97-5.94-2.79-.65.19-2.05,0-2.05,0l-1.58.19-1.39.37-1.58,1.12s-3.25,2.14-2.88,3.25c.37,1.12-.09,1.58-.09,1.58,0,0-2.6.19-2.32-1.86.28-2.05,2.79-2.51,3.81-3.71,1.02-1.21,2.51-2.51,4.74-1.95,0,0,.56.37,2.14-.37,1.58-.74,3.9-.19,5.95.93,2.04,1.12,4.36,2.51,5.57,1.12,1.21-1.4,3.06-7.8,1.39-10.41-1.67-2.6-7.06.84-8.64.28,0,0-2.24-.16-3.61-1.45l2.58,2.75s3.16,2.23,3.16,5.3c0,0-2.04,0-4.45.65.17-.04,2.58-.72,2.22-2.78-.37-2.14-2.88-3.16-3.25-2.23-.37.93-.37,1.21-.37,1.21,0,0-1.12-1.02-1.77-3.34-.65-2.33-2.98-9.39-2.98-9.39,0,0,.03-3.81,6.32-4.83,5.37-.87,6.78-1.49,5.48-3.62-.07-.11-.14-.23-.22-.37C39.21,3.62,32.96.86,26.07.86c-4.16,0-8.08,1.01-11.54,2.79-1.33,3.54-1.08,6.24-.73,7.7.65,1.98,1.66,2.63,1.68,2.64.09.05.12.17.07.25-1.69,2.9-1.95,7.43-1.96,7.47,0,.09-.07.16-.16.17-.09.01-.17-.04-.2-.12-1.67-4.94-1.61-9.12-1.2-11.93.22-2.01.89-4,1.65-5.72-.59.33-1.16.69-1.72,1.06-2.82,8.58-.59,16.24-.59,16.24-.37-.3-.99-.52-1.43-.57-.88-.08-1.18-.04-2.57.29-.42-5.86.27-10.18,1.34-13.34C3.87,12.39.86,18.88.86,26.07c0,12.2,8.67,22.38,20.19,24.71-1.39-1.25-2.57-2.51-3.54-3.82Zm19.64-15.98c.74-.37,1.18.87,1.18.87,0,0-.37.93-1.18.56-.81-.37-.99-.5-1.55-.31,0,0,.8-.74,1.55-1.12Zm-12.7-.74c-1.8-.37-4.27-1.43-1.86-1.67,2.42-.25,5.89-.74,7.18-2.66,1.3-1.92,1.36-4.4,1.36-4.4,0,0-.07-.56.08-.83.2-.37.64-.37.73.83,0,0,.06,3.28-1.42,5.64-1.49,2.35-4.27,3.47-6.07,3.1Zm7.99,2.1c-1.24,1.3-1.61.93-1.61.93-1.79-.37-.12-1.67.37-1.67s1.24.74,1.24.74Zm-11.38-20.44c.19-1.02,2.14-2.97,4.18-3.44,2.04-.46,2.32-1.58,1.95-5.95-.37-4.37,1.86,1.86,1.86,1.86,0,0,.09,3.53,1.58,4.09,1.49.56,1.39,1.02,1.39,1.02-.65,1.49.46,2.79-.37,3.62-.84.84-1.49,1.86-1.49,1.86-.83.65-1.39-2.69-1.95-3.62-.56-.93-2.23-1.4-4.37-.37-2.14,1.02-2.97,1.95-2.79.93Zm-7.7,10.96h3.59l.25-1.11c1.67-1.49,5.45-2.23,6.69-2.42,1.24-.18,3.22.37,2.29-.74-.93-1.11-2.07-1.21-2.07-1.21-2.79,0-5.02,2.13-5.02,2.13-2.32,1.42-.9-.68-.9-.68,0,0,.81-1.24,2.48-2.23,1.67-.99,2.85-2.04,6.38-.99,3.53,1.05,3.28,2.91,2.6,2.73-.68-.19-2.67-.12-2.17.12.5.25.93.8.93.8,1.8-.12,2.29.81,1.8,3.72-.5,2.91-2.29,3.34-4.27,3.97-1.42.44-4.55.93-6.19.93-.64,0-1.05-.44-1.05-.44,0,0-1.24-.93-1.8-1.8-.56-.87-3.53-1.61-3.78-2.05-.25-.43.25-.74.25-.74Zm-3.34,13.83c-.08,1.1-.39,1.87-.92,2.07-.38.15-1.96.54-2.93-.43-.89-.89-1.96-2.65-2.64-4.92-.51-1.68-.69-3.3-.69-4.55,0-1.45.92-1.89,1.78-2.17.32-.1.61-.18.79-.23,1.24-.36,2.92,1.95,3.94,5.35.55,1.83.77,3.58.68,4.88Z"/>
      <path class="cls-2" d="m19.51,24.49c.09-.53.03-1.8.69-2.3.76-.57,1.16-.99,3.36-1.39,0,0-3.08-.16-5.01,1.39,0,0-.08,1.77.62,2.54,0,0,.26.23.34-.25Z"/>
      <path class="cls-2" d="m41.7,17.16s-3.54.08-5.44,2.19c0,0,.23.94.92,1.8,0,0,.72.74.63-.27-.1-1.13-1.46-2.26,3.89-3.72Z"/>
      <path class="cls-2" d="m41.04,14.14c-2.26.56-3.52,2.39-4.12,3.6,2.64-1.42,4.97-1.81,6.98-1.97.73-1.14-.27-2.27-2.86-1.63Z"/>
      <g>
        <path class="cls-1" d="m83.08,37.52v-10.34c0-2.02-.77-3.03-2.31-3.03-1.13,0-1.87.43-2.21,1.29-.27.72-.41,1.87-.41,3.45v8.64h-5.61v-10.03c0-2.23-.7-3.34-2.11-3.34-1.03,0-1.77.36-2.21,1.08-.45.72-.67,1.95-.67,3.7v8.59h-5.56v-17.64h5.45v2.42h.05c1.1-1.92,2.73-2.88,4.89-2.88,2.47,0,4.13.94,4.99,2.83,1.37-1.89,3.14-2.83,5.3-2.83,4.05,0,6.07,2.52,6.07,7.56v10.54h-5.66Z"/>
        <path class="cls-1" d="m104.01,37.52v-2.42h-.05c-.51.89-1.26,1.6-2.24,2.13-.98.53-1.96.8-2.96.8-2.37,0-4.03-.69-4.99-2.06-.89-1.2-1.34-3.03-1.34-5.5v-10.6h5.61v10.24c0,2.13.93,3.19,2.78,3.19.75,0,1.41-.27,1.95-.82.72-.69,1.08-1.73,1.08-3.14v-9.46h5.61v17.64h-5.45Z"/>
        <path class="cls-1" d="m124.69,37.52v-8.54c0-1.71-.09-2.83-.26-3.34-.38-.99-1.22-1.49-2.52-1.49-1.03,0-1.8.37-2.32,1.11-.51.74-.77,1.62-.77,2.65v9.62h-5.56v-17.64h5.45v2.42h.05c.48-.86,1.23-1.55,2.24-2.08,1.01-.53,2.03-.8,3.06-.8,4.15,0,6.22,2.26,6.22,6.79v11.32h-5.61Z"/>
        <path class="cls-1" d="m145.27,37.52l-4.17-7.1-1.49,1.44v5.66h-5.56V13.29h5.56v12.5l5.09-5.92h6.53l-6.28,6.69,7.05,10.96h-6.74Z"/>
        <path class="cls-1" d="m170.73,28.72c0,2.64-.86,4.87-2.57,6.69-1.68,1.75-3.84,2.62-6.48,2.62s-4.77-.87-6.48-2.62c-1.68-1.78-2.52-4.01-2.52-6.69s.84-4.92,2.52-6.64c1.68-1.78,3.84-2.67,6.48-2.67s4.8.89,6.48,2.67c1.71,1.78,2.57,4,2.57,6.64Zm-5.61,0c0-1.34-.26-2.43-.77-3.29-.62-1.1-1.51-1.65-2.67-1.65s-2.06.55-2.67,1.65c-.48.89-.72,1.99-.72,3.29,0,3.26,1.13,4.89,3.39,4.89,1.17,0,2.06-.53,2.67-1.59.51-.89.77-1.99.77-3.29Z"/>
        <path class="cls-1" d="m185.08,37.52v-8.54c0-1.71-.09-2.83-.26-3.34-.38-.99-1.22-1.49-2.52-1.49-1.03,0-1.8.37-2.32,1.11-.51.74-.77,1.62-.77,2.65v9.62h-5.56v-17.64h5.45v2.42h.05c.48-.86,1.23-1.55,2.24-2.08,1.01-.53,2.03-.8,3.06-.8,4.15,0,6.22,2.26,6.22,6.79v11.32h-5.61Z"/>
        <path class="cls-1" d="m202.41,43.69c-5.04,0-7.84-1.87-8.38-5.61h5.61c.17.79.48,1.3.93,1.54.44.24,1.13.36,2.06.36,1.95,0,2.93-1.37,2.93-4.12v-1.7h-.1c-1.03,1.72-2.54,2.57-4.53,2.57-2.5,0-4.39-.84-5.66-2.52-1.23-1.54-1.85-3.62-1.85-6.22,0-2.43.67-4.48,2.01-6.12,1.34-1.65,3.17-2.47,5.5-2.47,2.09,0,3.62.89,4.58,2.67h.05v-2.21h5.4v15.48c0,5.56-2.85,8.33-8.54,8.33Zm3.24-15.43c0-2.98-1.13-4.48-3.39-4.48s-3.24,1.48-3.24,4.42c0,1.1.26,2.04.77,2.83.58.89,1.41,1.34,2.47,1.34,2.26,0,3.39-1.37,3.39-4.12Z"/>
      </g>
      <g>
        <path class="cls-2" d="m181.02,15.11c-.4,0-.8-.24-1.21-.73l-4.57-5.61v4.9c0,.92-.33,1.38-.99,1.38s-.99-.46-.99-1.38v-6.82c0-.87.3-1.3.9-1.3.39,0,.76.22,1.12.65l4.63,5.69v-4.96c0-.92.34-1.38,1.01-1.38s.99.46.99,1.38v6.98c0,.8-.3,1.21-.9,1.21Z"/>
        <path class="cls-2" d="m189.66,14.1c0,.55-.5.83-1.49.83h-2.76c-.55,0-.92-.09-1.11-.26-.19-.17-.29-.49-.29-.95v-6.8c0-.92.33-1.38.99-1.38s.99.46.99,1.38v6.3h2.18c.99,0,1.49.29,1.49.87Z"/>
        <path class="cls-2" d="m191.64,15.05c-.67,0-1.01-.46-1.01-1.38v-6.74c0-.92.34-1.38,1.01-1.38s.99.46.99,1.38v6.74c0,.92-.33,1.38-.99,1.38Z"/>
        <path class="cls-2" d="m202.52,15.11c-.4,0-.8-.24-1.21-.73l-4.57-5.61v4.9c0,.92-.33,1.38-.99,1.38s-.99-.46-.99-1.38v-6.82c0-.87.3-1.3.9-1.3.39,0,.76.22,1.12.65l4.63,5.69v-4.96c0-.92.34-1.38,1.01-1.38s.99.46.99,1.38v6.98c0,.8-.3,1.21-.9,1.21Z"/>
        <path class="cls-2" d="m211.16,14.1c0,.55-.5.83-1.49.83h-2.76c-.55,0-.92-.09-1.11-.26-.19-.17-.29-.49-.29-.95v-6.7c0-.49.1-.84.29-1.05.19-.21.57-.32,1.13-.32h2.67c.99,0,1.49.28,1.49.85s-.5.85-1.49.85h-2.11v2.04h1.83c1,0,1.51.29,1.51.87s-.5.83-1.51.83h-1.83v2.13h2.18c.99,0,1.49.29,1.49.87Z"/>
        <path class="cls-2" d="m161.68,18.01c-4.62,0-8.39-3.08-8.39-8.18,0-4.83,3.76-8.25,8.39-8.25,5.19,0,8.55,3.7,8.55,8.25,0,5.1-3.93,8.18-8.55,8.18Zm0-14.3c-3.45,0-5.97,2.75-5.97,6.12,0,3.76,2.52,6.12,5.97,6.12s6.16-2.75,6.16-6.12-2.72-6.12-6.16-6.12Z"/>
      </g>
    </g>
  </g>
</svg>