<?xml version="1.0" encoding="UTF-8"?>
<svg id="Layer_2" data-name="Layer 2" xmlns="http://www.w3.org/2000/svg" viewBox="0 0 90 90">
  <defs>
    <style>
      .cls-1 {
        fill: #fff;
      }

      .cls-2 {
        fill: #333;
      }
    </style>
  </defs>
  <g id="Layer_1-2" data-name="Layer 1">
    <circle class="cls-2" cx="45" cy="45" r="45"/>
    <g>
      <rect class="cls-1" x="40.1" y="44.2" width="4.2" height="1.8" transform="translate(-19.6 43) rotate(-45)"/>
      <rect class="cls-1" x="34.5" y="49.5" width="4.8" height="1.8" transform="translate(-24.8 40.8) rotate(-45)"/>
      <path class="cls-1" d="m44.3,49.4c.6,0,1.1-.2,1.5-.7s.6-1,.5-1.6c0-.4-.3-.9-.8-1.4l-2.9,2.9c.6.5,1.1.8,1.6.8Z"/>
      <path class="cls-1" d="m40.6,50.7l-3.4,3.4c.7.6,1.3,1,1.9,1,.6,0,1.2-.3,1.7-.8s.7-1,.7-1.6c0-.6-.3-1.2-1-1.9Z"/>
      <path class="cls-1" d="m63.8,45.6l1.4,1.4,9.9-9.9c.6-.6.6-1.6,0-2.2l-4.5-4.5c-.5-.5-1.3-.6-2-.2-2.4,1.6-5.5,1.3-7.6-.8-2.1-2.1-2.3-5.3-.8-7.6.4-.6.3-1.4-.2-2l-4.9-4.9c-.6-.6-1.6-.6-2.2,0l-9.9,9.9.7.7c.4.4.4,1.1,0,1.5s-1.1.4-1.5,0l-.7-.7-26.6,26.6c-.6.6-.6,1.6,0,2.2l4.9,4.9c.5.5,1.3.6,2,.2,2.4-1.6,5.5-1.3,7.6.8,2.1,2.1,2.3,5.3.8,7.6-.4.6-.3,1.4.2,2l4.5,4.5c.6.6,1.6.6,2.2,0l26.6-26.6-1.4-1.4c-.4-.4-.4-1.1,0-1.5s1.1-.4,1.5,0Zm-17.6-14.6c-.4-.4-.4-1.1,0-1.5s1.1-.4,1.5,0l4,4c.4.4.4,1.1,0,1.5s-1.1.4-1.5,0l-4-4Zm-5.8,27.4c-.9.2-1.8,0-2.8-.3-.9-.4-1.8-1-2.7-1.8l-1.9,1.9-1.4-1.4,1.9-1.9-3.4-3.4,12.8-12.8,3.4,3.4,1.6-1.6,1.4,1.4-1.7,1.7c1.2,1.4,1.9,2.6,2.1,3.7.2,1.3-.2,2.5-1.3,3.5-.7.7-1.6,1.2-2.5,1.2s-1.9-.2-2.7-.8h0c.4.7.7,1.3.9,2,.2.6.2,1.3,0,2-.2.7-.6,1.3-1.2,1.9s-1.6,1.3-2.5,1.4Zm17.8-15.3l-4-4c-.4-.4-.4-1.1,0-1.5s1.1-.4,1.5,0l4,4c.4.4.4,1.1,0,1.5s-1.1.4-1.5,0Z"/>
    </g>
  </g>
</svg>