<?xml version="1.0" encoding="UTF-8"?>
<svg id="Layer_2" data-name="Layer 2" xmlns="http://www.w3.org/2000/svg" viewBox="0 0 90 90">
  <defs>
    <style>
      .cls-1 {
        stroke-miterlimit: 10;
      }

      .cls-1, .cls-2 {
        fill: none;
        stroke: gray;
        stroke-width: 2.54px;
      }

      .cls-2 {
        stroke-linecap: round;
        stroke-linejoin: round;
      }

      .cls-3 {
        fill: #e6e6e6;
      }
    </style>
  </defs>
  <g id="Layer_1-2" data-name="Layer 1">
    <g>
      <circle class="cls-3" cx="45" cy="45" r="45"/>
      <g>
        <g>
          <path class="cls-1" d="m29.79,73.79l-13.31-13.31c-2.53-2.53-2.53-6.62,0-9.15l22.77-22.77c1.3-1.3,3.09-1.99,4.93-1.88l12.61.7c3.29.18,5.92,2.81,6.1,6.1l.7,12.61c.1,1.84-.58,3.63-1.88,4.93l-22.77,22.77c-2.53,2.53-6.62,2.53-9.15,0Z"/>
          <circle class="cls-1" cx="54.91" cy="35.35" r="2.84"/>
          <path class="cls-1" d="m62.37,30.79c1.66-.73,3.59-1.35,5.7-1.79,6.79-1.4,12.75-.34,13.31,2.37s-4.49,6.04-11.28,7.45c-6.79,1.4-12.75.34-13.31-2.37-.16-.79.2-1.59.81-2.31"/>
        </g>
        <g>
          <circle class="cls-1" cx="34.49" cy="48.22" r="2.74"/>
          <circle class="cls-1" cx="34.49" cy="63.32" r="2.74"/>
          <line class="cls-2" x1="24.09" y1="56.63" x2="44.5" y2="54.47"/>
        </g>
      </g>
    </g>
  </g>
</svg>