<svg width="16" height="18" viewBox="0 0 16 18" fill="none" xmlns="http://www.w3.org/2000/svg">
<path d="M4.11111 8.20222V5.00302C4.11014 4.01131 4.46755 3.0546 5.11396 2.31863C5.76036 1.58266 6.64965 1.11992 7.60917 1.02026C8.56869 0.920589 9.53 1.1911 10.3065 1.77928C11.083 2.36746 11.6192 3.23134 11.8111 4.20322M11.8111 8.20222V5.00302C11.8121 4.01131 11.4547 3.0546 10.8083 2.31863C10.1619 1.58266 9.27257 1.11992 8.31305 1.02026C7.35352 0.92059 6.39221 1.1911 5.61574 1.77928C4.83926 2.36746 4.30302 3.23134 4.1111 4.20322M2.55556 8.20222H13.4444C14.3036 8.20222 15 8.91838 15 9.80181V15.4004C15 16.2838 14.3036 17 13.4444 17H2.55556C1.69645 17 1 16.2838 1 15.4004V9.80181C1 8.91838 1.69645 8.20222 2.55556 8.20222Z" stroke="#111111" stroke-width="1.5" stroke-linecap="round" stroke-linejoin="round"/>
</svg>
