<svg width="16" height="16" viewBox="0 0 16 16" fill="none" xmlns="http://www.w3.org/2000/svg">
<path d="M0.995494 14.2239V9.55596M0.995494 9.55596H5.25297M0.995494 9.55596L4.28794 12.948C5.05056 13.7845 5.99404 14.3956 7.03033 14.7243C8.06663 15.0529 9.16197 15.0884 10.2141 14.8274C11.2663 14.5664 12.241 14.0174 13.0474 13.2316C13.8537 12.4459 14.4653 11.449 14.8252 10.3339M14.6549 1.77614V6.44404M14.6549 6.44404H10.3974M14.6549 6.44404L11.3624 3.05203C10.5998 2.21548 9.65635 1.60437 8.62006 1.27572C7.58376 0.947078 6.48842 0.91161 5.43625 1.17263C4.38407 1.43365 3.40934 1.98264 2.60302 2.76839C1.7967 3.55414 1.18507 4.55104 0.825195 5.66605" stroke="#111111" stroke-width="1.5" stroke-linecap="round" stroke-linejoin="round"/>
</svg>
