<svg width="18" height="16" viewBox="0 0 18 16" fill="none" xmlns="http://www.w3.org/2000/svg">
<path d="M15.7663 2.23575C15.3753 1.84336 14.9111 1.53209 14.4002 1.31972C13.8893 1.10735 13.3417 0.998047 12.7887 0.998047C12.2357 0.998047 11.6881 1.10735 11.1772 1.31972C10.6663 1.53209 10.2021 1.84336 9.81116 2.23575L8.9998 3.04971L8.18843 2.23575C7.39874 1.44352 6.32768 0.998458 5.21089 0.998458C4.09409 0.998458 3.02303 1.44352 2.23334 2.23575C1.44365 3.02797 1 4.10246 1 5.22283C1 6.34321 1.44365 7.41769 2.23334 8.20992L3.0447 9.02388L8.9998 14.998L14.9549 9.02388L15.7663 8.20992C16.1574 7.81771 16.4677 7.35204 16.6794 6.83951C16.891 6.32698 17 5.77762 17 5.22283C17 4.66804 16.891 4.11869 16.6794 3.60616C16.4677 3.09362 16.1574 2.62795 15.7663 2.23575V2.23575Z" stroke="#111111" stroke-width="1.5" stroke-linecap="round" stroke-linejoin="round"/>
</svg>
