<svg width="16" height="19" viewBox="0 0 16 19" fill="none" xmlns="http://www.w3.org/2000/svg">
<path d="M15 8.21245C15 13.3034 8 17.667 8 17.667C8 17.667 1 13.3034 1 8.21245C1 6.47648 1.7375 4.81162 3.05025 3.58411C4.36301 2.3566 6.14348 1.66699 8 1.66699C9.85652 1.66699 11.637 2.3566 12.9497 3.58411C14.2625 4.81162 15 6.47648 15 8.21245Z" stroke="#111111" stroke-width="1.5" stroke-linecap="round" stroke-linejoin="round"/>
<path d="M8 10.3943C9.28866 10.3943 10.3333 9.41743 10.3333 8.21245C10.3333 7.00746 9.28866 6.03063 8 6.03063C6.71134 6.03063 5.66667 7.00746 5.66667 8.21245C5.66667 9.41743 6.71134 10.3943 8 10.3943Z" stroke="#111111" stroke-width="1.5" stroke-linecap="round" stroke-linejoin="round"/>
</svg>
