<svg width="16" height="18" viewBox="0 0 16 18" fill="none" xmlns="http://www.w3.org/2000/svg">
<path d="M1 17H0.25V17.75H1V17ZM15 17V17.75H15.75V17H15ZM11.5 10.6667V9.91667V10.6667ZM4.5 10.6667V9.91667V10.6667ZM1 14.2222H0.25H1ZM1 17.75H15V16.25H1V17.75ZM15.75 17V14.2222H14.25V17H15.75ZM15.75 14.2222C15.75 13.0841 15.3051 11.9903 14.5094 11.1819L13.4404 12.2342C13.9574 12.7595 14.25 13.4744 14.25 14.2222H15.75ZM14.5094 11.1819C13.7133 10.3732 12.631 9.91667 11.5 9.91667V11.4167C12.2255 11.4167 12.9237 11.7093 13.4404 12.2342L14.5094 11.1819ZM11.5 9.91667H4.5V11.4167H11.5V9.91667ZM4.5 9.91667C3.36898 9.91667 2.28672 10.3732 1.49064 11.1819L2.55962 12.2342C3.07628 11.7093 3.7745 11.4167 4.5 11.4167V9.91667ZM1.49064 11.1819C0.694944 11.9903 0.25 13.0841 0.25 14.2222H1.75C1.75 13.4744 2.04255 12.7595 2.55962 12.2342L1.49064 11.1819ZM0.25 14.2222V17H1.75V14.2222H0.25ZM10.75 4.55556C10.75 6.1162 9.50769 7.36111 8 7.36111V8.86111C10.3583 8.86111 12.25 6.92227 12.25 4.55556H10.75ZM8 7.36111C6.49231 7.36111 5.25 6.1162 5.25 4.55556H3.75C3.75 6.92227 5.6417 8.86111 8 8.86111V7.36111ZM5.25 4.55556C5.25 2.99491 6.49231 1.75 8 1.75V0.25C5.6417 0.25 3.75 2.18884 3.75 4.55556H5.25ZM8 1.75C9.50769 1.75 10.75 2.99491 10.75 4.55556H12.25C12.25 2.18884 10.3583 0.25 8 0.25V1.75Z" fill="#111111"/>
</svg>
