<?xml version="1.0" encoding="UTF-8"?>
<svg id="Layer_2" data-name="Layer 2" xmlns="http://www.w3.org/2000/svg" viewBox="0 0 90 90">
  <defs>
    <style>
      .cls-1 {
        fill: #fff;
      }

      .cls-2 {
        fill: #333;
      }
    </style>
  </defs>
  <g id="Layer_1-2" data-name="Layer 1">
    <circle class="cls-2" cx="45" cy="45" r="45"/>
    <g>
      <path class="cls-1" d="m64.6,69.1c0,2.4,1.6,2.8,2.3,2.9,1.4-.1,2.5-1.3,2.5-2.8V26.3c0-1.4-1.1-2.5-2.5-2.5h-2.4v45.3Z"/>
      <path class="cls-1" d="m28,72h34.7c-.4-.8-.7-1.7-.7-2.9V20.7c0-1.5-1.2-2.7-2.7-2.7H23.2c-1.5,0-2.7,1.2-2.7,2.7v48.2c0,1.7,1.4,3,3,3h4.4Zm27.9-7.2h-29.7c-.7,0-1.3-.6-1.3-1.3s.6-1.3,1.3-1.3h29.7c.7,0,1.3.6,1.3,1.3s-.6,1.3-1.3,1.3Zm0-6.2h-29.7c-.7,0-1.3-.6-1.3-1.3s.6-1.3,1.3-1.3h29.7c.7,0,1.3.6,1.3,1.3s-.6,1.3-1.3,1.3Zm0-6.2h-29.7c-.7,0-1.3-.6-1.3-1.3s.6-1.3,1.3-1.3h29.7c.7,0,1.3.6,1.3,1.3s-.6,1.3-1.3,1.3Zm0-6.2h-29.7c-.7,0-1.3-.6-1.3-1.3s.6-1.3,1.3-1.3h29.7c.7,0,1.3.6,1.3,1.3s-.6,1.3-1.3,1.3Zm0-5.6h-12.4c-.7,0-1.3-.6-1.3-1.3s.6-1.3,1.3-1.3h12.4c.7,0,1.3.6,1.3,1.3s-.6,1.3-1.3,1.3Zm0-6.2h-12.4c-.7,0-1.3-.6-1.3-1.3s.6-1.3,1.3-1.3h12.4c.7,0,1.3.6,1.3,1.3s-.6,1.3-1.3,1.3Zm0-6.4h-12.4c-.7,0-1.3-.6-1.3-1.3s.6-1.3,1.3-1.3h12.4c.7,0,1.3.6,1.3,1.3s-.6,1.3-1.3,1.3Zm-31.1-1.3c0-.8.6-1.4,1.4-1.4h13.4c.8,0,1.4.6,1.4,1.4v12.6c0,.8-.6,1.4-1.4,1.4h-13.4c-.8,0-1.4-.6-1.4-1.4v-12.6Z"/>
      <rect class="cls-1" x="27.6" y="28" width="10.6" height="9.8"/>
    </g>
  </g>
</svg>