<?xml version="1.0" encoding="UTF-8"?>
<svg id="Layer_2" data-name="Layer 2" xmlns="http://www.w3.org/2000/svg" viewBox="0 0 90 90">
  <defs>
    <style>
      .cls-1 {
        fill: #fff;
      }

      .cls-2 {
        fill: #333;
      }
    </style>
  </defs>
  <g id="Layer_1-2" data-name="Layer 1">
    <circle class="cls-2" cx="45" cy="45" r="45"/>
    <g>
      <path class="cls-1" d="m39.9,45.1c.8,0,1.5-.3,2-.8s.8-1.3.8-2c0-.8-.3-1.5-.8-2-.5-.5-1.2-.8-2-.8-.8,0-1.5.3-2,.8-.5.5-.8,1.3-.8,2s.3,1.5.8,2c.5.5,1.3.8,2,.8Z"/>
      <path class="cls-1" d="m39.9,55.9c-1.6,0-2.9,1.3-2.9,2.9,0,1.6,1.3,2.9,2.9,2.9,1.6,0,2.9-1.3,2.9-2.9,0-.8-.3-1.5-.8-2-.5-.5-1.2-.8-2-.8Z"/>
      <path class="cls-1" d="m71.8,38.6l-1.6-15.2c-.2-1.9-1.7-3.4-3.6-3.6l-15.2-1.6c-1.2-.1-2.4.3-3.3,1.2l-29.1,29.1c-1.1,1.1-1.1,2.9,0,4l18.5,18.5c1.1,1.1,2.9,1.1,4,0l29.1-29.1c.9-.9,1.3-2.1,1.2-3.3Zm-35.3.1c.9-.9,2.2-1.4,3.5-1.4,2.7,0,4.9,2.2,4.9,4.9,0,1.3-.5,2.5-1.4,3.5-.9.9-2.2,1.4-3.5,1.4s-2.5-.5-3.5-1.4-1.4-2.2-1.4-3.5c0-1.3.5-2.5,1.4-3.5Zm3.5,24.9c-1.4,0-2.6-.5-3.5-1.4-.9-.9-1.4-2.1-1.4-3.5,0-2.7,2.2-4.9,4.9-4.9,2.7,0,4.9,2.2,4.9,4.9,0,2.7-2.2,4.9-4.9,4.9Zm12.5-12.2h-24.9c-.3,0-.5-.1-.7-.3s-.3-.4-.3-.7c0-.6.5-1,1-1h24.9c.6,0,1,.5,1,1,0,.6-.5,1-1,1Zm14.1-24.7c-.9.9-2.3.9-3.2,0-.9-.9-.9-2.3,0-3.2.9-.9,2.3-.9,3.2,0,.9.9.9,2.3,0,3.2Z"/>
    </g>
  </g>
</svg>