<svg width="24" height="24" viewBox="0 0 24 24" fill="none" xmlns="http://www.w3.org/2000/svg">
<path fill-rule="evenodd" clip-rule="evenodd" d="M12 24C5.37258 24 0 18.6274 0 12C0 5.37258 5.37258 0 12 0C18.6274 0 24 5.37258 24 12C24 18.6274 18.6274 24 12 24ZM20.0723 17.5905C21.1731 16.004 21.8183 14.0774 21.8183 12.0001C21.8183 6.57763 17.4225 2.18188 12.0001 2.18188C6.57763 2.18188 2.18188 6.57763 2.18188 12.0001C2.18188 14.0774 2.82705 16.0041 3.92794 17.5907C5.15565 15.9689 8.04077 15.2728 12.0002 15.2728C15.9595 15.2728 18.8445 15.9688 20.0723 17.5905ZM18.5071 19.3524C18.1878 18.2044 15.894 17.4546 12.0002 17.4546C8.10619 17.4546 5.8124 18.2045 5.49325 19.3526C7.22558 20.8868 9.50405 21.8183 12.0001 21.8183C14.4962 21.8183 16.7748 20.8868 18.5071 19.3524ZM11.9999 5.45427C9.35888 5.45427 7.63623 7.36965 7.63623 9.81791C7.63623 13.5569 9.55717 15.2725 11.9999 15.2725C14.4196 15.2725 16.3635 13.6139 16.3635 10.0361C16.3635 7.55054 14.6335 5.45427 11.9999 5.45427ZM9.81812 9.81841C9.81812 12.294 10.7107 13.0911 11.9999 13.0911C13.2847 13.0911 14.1818 12.3258 14.1818 10.0366C14.1818 8.67342 13.3261 7.6366 11.9999 7.6366C10.6186 7.6366 9.81812 8.52659 9.81812 9.81841Z" fill="#111111"/>
</svg>
