<svg width="24" height="20" viewBox="0 0 24 20" fill="none" xmlns="http://www.w3.org/2000/svg">
<path fill-rule="evenodd" clip-rule="evenodd" d="M2.4 16.6667V2.22222H16.8V16.6667C16.8 17.0563 16.8722 17.4302 17.0049 17.7778H3.6C2.93726 17.7778 2.4 17.2803 2.4 16.6667ZM20.4 20H3.6C1.61177 20 0 18.5076 0 16.6667V0H16.8H18H19.2V5.55575H24V6.66667H24V16.6667C24 18.5076 22.3883 20 20.4 20H20.4ZM20.4 17.7778H20.4C21.0628 17.7778 21.6 17.2803 21.6 16.6667V7.77798H19.2V16.6667C19.2 17.2803 19.7373 17.7778 20.4 17.7778ZM9.60005 4.44469V8.88914H4.80005V4.44469H9.60005ZM14.4 7.77798V5.55575H10.8V7.77798H14.4ZM14.4 10V12.2222H4.80005V10H14.4ZM14.4 15.5556V13.3334H4.80005V15.5556H14.4Z" fill="#111111"/>
</svg>
