<svg width="16" height="16" viewBox="0 0 16 16" fill="none" xmlns="http://www.w3.org/2000/svg">
<path fill-rule="evenodd" clip-rule="evenodd" d="M8 16C3.58172 16 0 12.4183 0 8C0 3.58172 3.58172 0 8 0C12.4183 0 16 3.58172 16 8C16 12.4183 12.4183 16 8 16ZM7.99988 14.5455C11.6148 14.5455 14.5453 11.615 14.5453 8.00001C14.5453 4.38506 11.6148 1.45456 7.99988 1.45456C4.38493 1.45456 1.45443 4.38506 1.45443 8.00001C1.45443 11.615 4.38493 14.5455 7.99988 14.5455ZM10.3949 5.30397L6.54556 9.15335L4.878 7.48579L3.84948 8.51431L6.54556 11.2104L11.4235 6.33249L10.3949 5.30397Z" fill="#111111" fill-opacity="0.65"/>
</svg>
