<svg width="18" height="18" viewBox="0 0 18 18" fill="none" xmlns="http://www.w3.org/2000/svg">
<path fill-rule="evenodd" clip-rule="evenodd" d="M17.0976 0L17.9972 16.1002C18.0526 17.0927 17.2883 17.9421 16.29 17.9972C16.2399 17.9995 16.2399 17.9995 16.1898 18H16.1898H16.1896H1.81033C0.810513 18 0 17.1941 0 16.2C0.000464724 16.1501 0.000464724 16.15 0.00278727 16.1002L0.902374 0H17.0976ZM2.61473 1.7998L1.81014 16.1998H16.1894L15.3848 1.7998H2.61473ZM6.28506 3.60059H4.47473V5.85059C4.47473 8.01121 6.57765 9.90059 9.00056 9.90059C11.4235 9.90059 13.5264 8.01121 13.5264 5.85059V3.60059H11.7161V5.85059C11.7161 6.97412 10.4623 8.10059 9.00056 8.10059C7.53884 8.10059 6.28506 6.97412 6.28506 5.85059V3.60059Z" fill="#111111"/>
</svg>
