<svg width="18" height="19" viewBox="0 0 18 19" fill="none" xmlns="http://www.w3.org/2000/svg">
<path fill-rule="evenodd" clip-rule="evenodd" d="M10.8 3.66251C10.8 3.92132 10.8273 4.17376 10.8792 4.41709L6.31552 6.69895C5.65553 5.94134 4.68369 5.46252 3.60001 5.46252C1.61178 5.46252 0 7.0743 0 9.06253C0 11.0508 1.61178 12.6625 3.60001 12.6625C4.68367 12.6625 5.6555 12.1837 6.31549 11.4261L10.8792 13.708C10.8273 13.9513 10.8 14.2037 10.8 14.4625C10.8 16.4508 12.4118 18.0626 14.4 18.0626C16.3883 18.0626 18.0001 16.4508 18.0001 14.4625C18.0001 12.4743 16.3883 10.8625 14.4 10.8625C13.3166 10.8625 12.345 11.3411 11.685 12.0984L7.12096 9.8164C7.17276 9.57329 7.20002 9.32109 7.20002 9.06253C7.20002 8.80398 7.17276 8.55179 7.12097 8.30869L11.685 6.02666C12.345 6.78394 13.3166 7.26252 14.4 7.26252C16.3883 7.26252 18.0001 5.65074 18.0001 3.66251C18.0001 1.67428 16.3883 0.0625 14.4 0.0625C12.4118 0.0625 10.8 1.67428 10.8 3.66251ZM5.40006 9.06253C5.40006 10.0566 4.59417 10.8625 3.60005 10.8625C2.60594 10.8625 1.80005 10.0566 1.80005 9.06253C1.80005 8.06842 2.60594 7.26253 3.60005 7.26253C4.59417 7.26253 5.40006 8.06842 5.40006 9.06253ZM14.4 5.46251C15.3941 5.46251 16.2 4.65662 16.2 3.66251C16.2 2.66839 15.3941 1.8625 14.4 1.8625C13.4059 1.8625 12.6 2.66839 12.6 3.66251C12.6 4.65662 13.4059 5.46251 14.4 5.46251ZM16.2 14.4625C16.2 15.4567 15.3941 16.2625 14.4 16.2625C13.4059 16.2625 12.6 15.4567 12.6 14.4625C12.6 13.4684 13.4059 12.6625 14.4 12.6625C15.3941 12.6625 16.2 13.4684 16.2 14.4625Z" fill="#111111"/>
</svg>
