<svg width="19" height="19" viewBox="0 0 19 19" fill="none" xmlns="http://www.w3.org/2000/svg">
<path fill-rule="evenodd" clip-rule="evenodd" d="M9.06818 18.1364C4.05996 18.1364 0 14.0764 0 9.06818C0 4.05996 4.05996 0 9.06818 0C14.0764 0 18.1364 4.05996 18.1364 9.06818C18.1364 14.0764 14.0764 18.1364 9.06818 18.1364ZM15.1681 13.2929C16 12.094 16.4876 10.638 16.4876 9.06818C16.4876 4.97055 13.1658 1.64876 9.06815 1.64876C4.97052 1.64876 1.64873 4.97055 1.64873 9.06818C1.64873 10.638 2.13625 12.0939 2.96813 13.2928C3.89595 12.0673 6.07613 11.5413 9.06809 11.5413C12.0601 11.5413 14.2403 12.0674 15.1681 13.2929ZM13.9853 14.6244C13.744 13.7567 12.0107 13.1901 9.06809 13.1901C6.12563 13.1901 4.39228 13.7567 4.15094 14.6243C5.46005 15.7837 7.1819 16.4876 9.06815 16.4876C10.9544 16.4876 12.6762 15.7837 13.9853 14.6244ZM9.06819 4.12191C7.07244 4.12191 5.77067 5.56932 5.77067 7.41943C5.77067 10.2449 7.22229 11.5413 9.06819 11.5413C10.8967 11.5413 12.3657 10.288 12.3657 7.5843C12.3657 5.70602 11.0584 4.12191 9.06819 4.12191ZM7.41945 7.41943C7.41945 9.29016 8.09397 9.89257 9.06821 9.89257C10.0391 9.89257 10.717 9.31418 10.717 7.5843C10.717 6.55417 10.0704 5.77067 9.06821 5.77067C8.02433 5.77067 7.41945 6.44322 7.41945 7.41943Z" fill="white"/>
</svg>
