<svg width="54" height="54" viewBox="0 0 54 54" fill="none" xmlns="http://www.w3.org/2000/svg">
<path d="M7.55556 52H46.4444C49.5127 52 52 49.5127 52 46.4444V7.55556C52 4.48731 49.5127 2 46.4444 2H7.55556C4.48731 2 2 4.48731 2 7.55556V46.4444C2 49.5127 4.48731 52 7.55556 52ZM7.55556 52L38.1111 21.4444L52 35.3333M21.4444 17.2778C21.4444 19.579 19.579 21.4444 17.2778 21.4444C14.9766 21.4444 13.1111 19.579 13.1111 17.2778C13.1111 14.9766 14.9766 13.1111 17.2778 13.1111C19.579 13.1111 21.4444 14.9766 21.4444 17.2778Z" stroke="#9D9D9D" stroke-opacity="0.5" stroke-width="4" stroke-linecap="round" stroke-linejoin="round"/>
</svg>
