<svg width="16" height="16" viewBox="0 0 16 16" fill="none" xmlns="http://www.w3.org/2000/svg">
<path d="M5.2 6.44444L8 9.55556L10.8 6.44444M2.4 1H13.6C13.9713 1 14.3274 1.16389 14.5899 1.45561C14.8525 1.74733 15 2.143 15 2.55556V7.22222C15 9.28502 14.2625 11.2633 12.9497 12.7219C11.637 14.1806 9.85652 15 8 15C7.08075 15 6.17049 14.7988 5.32122 14.408C4.47194 14.0171 3.70026 13.4442 3.05025 12.7219C1.7375 11.2633 1 9.28502 1 7.22222V2.55556C1 2.143 1.1475 1.74733 1.41005 1.45561C1.6726 1.16389 2.0287 1 2.4 1Z" stroke="#111111" stroke-width="1.5" stroke-linecap="round" stroke-linejoin="round"/>
</svg>
