<svg width="40" height="40" viewBox="0 0 40 40" fill="none" xmlns="http://www.w3.org/2000/svg">
<path fill-rule="evenodd" clip-rule="evenodd" d="M12 8H8V5.99967H3.99996V12.001H36V5.99967H32V8H28V5.99967H12V8ZM3.99996 35.9997V16.001H36V35.9997H3.99996ZM28 2H12V0H8V2H4C1.79086 2 0 3.79086 0 6V36C0 38.2091 1.79086 40 4 40H36C38.2091 40 40 38.2091 40 36V6C40 3.79086 38.2091 2 36 2H32V0H28V2ZM26.5857 18.5859L17.9999 27.1717L13.4141 22.5859L10.5857 25.4144L17.9999 32.8286L29.4141 21.4144L26.5857 18.5859Z" fill="#9D9D9D"/>
</svg>
