<svg width="40" height="40" viewBox="0 0 40 40" fill="none" xmlns="http://www.w3.org/2000/svg">
<path d="M30.909 7.27675H32.7272V9.09471C32.7272 9.57686 32.9188 10.0393 33.2597 10.3802C33.6007 10.7211 34.0632 10.9127 34.5454 10.9127C35.0276 10.9127 35.4901 10.7211 35.831 10.3802C36.172 10.0393 36.3636 9.57686 36.3636 9.09471V7.27675H38.1817C38.664 7.27675 39.1264 7.08522 39.4674 6.74429C39.8084 6.40335 39.9999 5.94095 39.9999 5.4588C39.9999 4.97664 39.8084 4.51424 39.4674 4.17331C39.1264 3.83237 38.664 3.64084 38.1817 3.64084H36.3636V1.82288C36.3636 1.34073 36.172 0.878324 35.831 0.537391C35.4901 0.196457 35.0276 0.00492319 34.5454 0.00492319C34.0632 0.00492319 33.6007 0.196457 33.2597 0.537391C32.9188 0.878324 32.7272 1.34073 32.7272 1.82288V3.64084H30.909C30.4268 3.64084 29.9644 3.83237 29.6234 4.17331C29.2824 4.51424 29.0909 4.97664 29.0909 5.4588C29.0909 5.94095 29.2824 6.40335 29.6234 6.74429C29.9644 7.08522 30.4268 7.27675 30.909 7.27675ZM20.9091 9.09471H19.0909C17.6442 9.09471 16.2569 9.66931 15.2339 10.6921C14.211 11.7149 13.6363 13.1021 13.6363 14.5486V25.4563C13.6363 26.9028 14.211 28.29 15.2339 29.3128C16.2569 30.3356 17.6442 30.9102 19.0909 30.9102H20.9091C22.3557 30.9102 23.7431 30.3356 24.766 29.3128C25.7889 28.29 26.3636 26.9028 26.3636 25.4563V14.5486C26.3636 13.1021 25.7889 11.7149 24.766 10.6921C23.7431 9.66931 22.3557 9.09471 20.9091 9.09471ZM22.7272 25.4563C22.7272 25.9385 22.5357 26.4009 22.1947 26.7418C21.8537 27.0828 21.3913 27.2743 20.9091 27.2743H19.0909C18.6087 27.2743 18.1462 27.0828 17.8052 26.7418C17.4643 26.4009 17.2727 25.9385 17.2727 25.4563V14.5486C17.2727 14.0664 17.4643 13.604 17.8052 13.2631C18.1462 12.9222 18.6087 12.7306 19.0909 12.7306H20.9091C21.3913 12.7306 21.8537 12.9222 22.1947 13.2631C22.5357 13.604 22.7272 14.0664 22.7272 14.5486V25.4563ZM37.4545 14.5486C37.2205 14.5963 36.9981 14.6896 36.8002 14.8233C36.6023 14.9569 36.4326 15.1282 36.3009 15.3274C36.1692 15.5266 36.0781 15.7498 36.0327 15.9843C35.9873 16.2187 35.9885 16.4598 36.0363 16.6938C36.7462 20.141 36.3254 23.7252 34.8365 26.9144C33.3476 30.1036 30.8698 32.7277 27.7711 34.3972C24.6724 36.0667 21.1178 36.6926 17.6351 36.182C14.1523 35.6715 10.9271 34.0516 8.43811 31.5629C5.94912 29.0742 4.32906 25.8494 3.81842 22.3671C3.30779 18.8848 3.93379 15.3306 5.60351 12.2323C7.27323 9.13389 9.89765 6.65646 13.0872 5.16771C16.2768 3.67897 19.8614 3.25827 23.309 3.96807C23.7913 4.0645 24.292 3.96545 24.7012 3.6927C25.1104 3.41996 25.3944 2.99586 25.4909 2.51371C25.5873 2.03155 25.4882 1.53084 25.2155 1.12172C24.9427 0.712601 24.5185 0.428586 24.0363 0.332155C22.7057 0.0842793 21.3531 -0.0253811 20 0.00492319C16.0443 0.00492319 12.1776 1.17776 8.88858 3.37512C5.59961 5.57247 3.03616 8.69566 1.52241 12.3497C0.00866574 16.0038 -0.3874 20.0246 0.384303 23.9038C1.15601 27.7829 3.06082 31.3461 5.85786 34.1429C8.6549 36.9396 12.2186 38.8441 16.0982 39.6157C19.9778 40.3874 23.9991 39.9913 27.6536 38.4778C31.3081 36.9642 34.4317 34.4011 36.6293 31.1125C38.8269 27.8239 39.9999 23.9576 39.9999 20.0025C40.0038 18.6591 39.8697 17.3189 39.5999 16.003C39.5564 15.7657 39.466 15.5395 39.3342 15.3375C39.2023 15.1355 39.0316 14.9617 38.8319 14.8264C38.6322 14.691 38.4076 14.5968 38.1711 14.5491C37.9346 14.5014 37.691 14.5012 37.4545 14.5486Z" fill="#9D9D9D"/>
</svg>
