<svg width="18" height="18" viewBox="0 0 18 18" fill="none" xmlns="http://www.w3.org/2000/svg">
<path fill-rule="evenodd" clip-rule="evenodd" d="M9 18C10.5521 18 12.0483 17.6058 13.3735 16.8676L17.1852 17.1852L16.8676 13.3735C17.6058 12.0483 18 10.5521 18 9C18 4.02944 13.9706 0 9 0C4.02944 0 0 4.02944 0 9C0 13.9706 4.02944 18 9 18ZM12.7033 15.1766L12.9522 15.0269L15.2146 15.2154L15.0261 12.9531L15.1757 12.7041C15.8425 11.5948 16.1998 10.325 16.1998 9.00066C16.1998 5.02421 12.9763 1.80066 8.99981 1.80066C5.02335 1.80066 1.7998 5.02421 1.7998 9.00066C1.7998 12.9771 5.02335 16.2007 8.99981 16.2007C10.3242 16.2007 11.594 15.8434 12.7033 15.1766ZM9.00015 13.4982C9.49737 13.4982 9.90044 13.0953 9.90044 12.5982C9.90044 12.1012 9.49737 11.6982 9.00015 11.6982C8.50293 11.6982 8.09985 12.1012 8.09985 12.5982C8.09985 13.0953 8.50293 13.4982 9.00015 13.4982ZM8.0998 10.8H9.8998V9.9C9.8998 9.9022 9.90406 9.89751 9.91369 9.8869C9.93731 9.86087 9.99328 9.7992 10.0982 9.71593C10.1884 9.64441 10.2164 9.62588 10.4441 9.48148C11.2192 8.99009 11.6998 8.13561 11.6998 7.2C11.6998 5.70883 10.491 4.5 8.9998 4.5C7.50864 4.5 6.2998 5.70883 6.2998 7.2H8.0998C8.0998 6.70294 8.50275 6.3 8.9998 6.3C9.49686 6.3 9.8998 6.70294 9.8998 7.2C9.8998 7.51258 9.74009 7.79658 9.48037 7.96123C9.18895 8.14598 9.14057 8.17803 8.97954 8.30578C8.44427 8.73043 8.0998 9.23642 8.0998 9.9V10.8Z" fill="#111111" fill-opacity="0.5"/>
</svg>
