<svg width="18" height="18" viewBox="0 0 18 18" fill="none" xmlns="http://www.w3.org/2000/svg">
<path fill-rule="evenodd" clip-rule="evenodd" d="M16.3131 0L17.1714 15.4496C17.2244 16.4021 16.4951 17.2172 15.5426 17.2701C15.4948 17.2723 15.4948 17.2723 15.447 17.2727H15.447H15.4468H1.72727C0.773326 17.2727 0 16.4994 0 15.5455C0.000443402 15.4975 0.000443402 15.4975 0.00265939 15.4496L0.860973 0H16.3131ZM2.49494 1.72726L1.72727 15.5454H15.4468L14.6791 1.72726H2.49494ZM5.99619 3.45455H4.26892V5.61364C4.26892 7.68696 6.27535 9.5 8.5871 9.5C10.8989 9.5 12.9053 7.68696 12.9053 5.61364V3.45455H11.178V5.61364C11.178 6.69178 9.98176 7.77273 8.5871 7.77273C7.19245 7.77273 5.99619 6.69178 5.99619 5.61364V3.45455Z" fill="white"/>
</svg>
