<svg width="19" height="20" viewBox="0 0 19 20" fill="none" xmlns="http://www.w3.org/2000/svg">
<path fill-rule="evenodd" clip-rule="evenodd" d="M15.448 8.17835C15.448 4.48978 13.414 1.92967 10.7822 1.16107C10.6869 0.914493 10.5363 0.685258 10.3316 0.492909C9.63209 -0.164303 8.54214 -0.164303 7.84265 0.492909C7.63839 0.684826 7.48799 0.913464 7.39266 1.15941C4.75743 1.92462 2.72612 4.47915 2.72612 8.17835C2.72612 10.5718 2.24358 11.9129 1.3503 12.8848C1.20096 13.0473 0.796377 13.4195 0.522276 13.6717L0.52225 13.6717L0.522192 13.6717C0.392511 13.791 0.292052 13.8834 0.261675 13.914L0 14.1794V17.2782H5.53224C5.7193 18.2433 6.24295 18.889 7.18992 19.4668C8.35483 20.1777 9.8194 20.1777 10.9843 19.4668C11.82 18.9568 12.3804 18.1731 12.6077 17.2782H18.1741V14.1794L17.9124 13.914C17.8849 13.8861 17.7885 13.7972 17.6625 13.681L17.6625 13.6809L17.6624 13.6809C17.3892 13.4288 16.9767 13.0483 16.825 12.8827C15.9312 11.9062 15.448 10.5634 15.448 8.17835ZM10.6653 17.2782H7.43202C7.5604 17.517 7.77923 17.6974 8.13662 17.9155C8.72024 18.2716 9.45399 18.2716 10.0376 17.9155C10.3079 17.7505 10.519 17.5323 10.6653 17.2782ZM15.4845 14.1098C15.6757 14.3187 16.0855 14.7005 16.3567 14.95V15.4608H1.81738V14.9504C2.08643 14.7039 2.49749 14.3224 2.68836 14.1147C3.90216 12.794 4.5435 11.0115 4.5435 8.17836C4.5435 4.74335 6.6633 2.73737 9.08703 2.73737C11.5039 2.73737 13.6306 4.75371 13.6306 8.17836C13.6306 11.0024 14.2721 12.7855 15.4845 14.1098Z" fill="white"/>
</svg>
