<svg width="18" height="19" viewBox="0 0 18 19" fill="none" xmlns="http://www.w3.org/2000/svg">
<path fill-rule="evenodd" clip-rule="evenodd" d="M7.307 14.9773C3.27146 14.9773 0 11.7058 0 7.67029C0 3.63474 3.27146 0.363281 7.307 0.363281C11.3425 0.363281 14.614 3.63474 14.614 7.67029C14.614 9.35885 14.0412 10.9136 13.0794 12.151L18 17.0716L16.7083 18.3633L11.7877 13.4427C10.5504 14.4045 8.99557 14.9773 7.307 14.9773ZM12.7873 7.67029C12.7873 10.697 10.3337 13.1505 7.30703 13.1505C4.28037 13.1505 1.82678 10.697 1.82678 7.67029C1.82678 4.64363 4.28037 2.19003 7.30703 2.19003C10.3337 2.19003 12.7873 4.64363 12.7873 7.67029Z" fill="white"/>
</svg>
