<svg width="24" height="20" viewBox="0 0 24 20" fill="none" xmlns="http://www.w3.org/2000/svg">
<path fill-rule="evenodd" clip-rule="evenodd" d="M5.64361e-05 1.96532C5.65247e-05 0.879853 0.821666 -8.76438e-05 1.83517 -8.75489e-05L18.3512 -8.60025e-05C19.3647 -8.59076e-05 20.1863 0.879855 20.1863 1.96532L20.1863 5.02341L19.7282 5.30723C18.8824 5.83126 18.3512 6.79632 18.3512 7.86153C18.3512 8.92674 18.8824 9.89179 19.7282 10.4158L20.1863 10.6997L20.1863 13.7577C20.1863 14.8432 19.3647 15.7231 18.3512 15.7231L1.83517 15.7231C0.821665 15.7231 5.53849e-05 14.8432 5.54735e-05 13.7577L5.57232e-05 10.6996L0.458168 10.4158C1.30402 9.89179 1.83517 8.92674 1.83517 7.86153C1.83517 6.79631 1.30402 5.83126 0.458169 5.30722L5.61865e-05 5.02341L5.64361e-05 1.96532ZM3.67022 7.8616C3.67022 9.43442 2.9738 10.8781 1.83511 11.7929L1.83511 13.7578L7.34043 13.7578C7.34043 13.7578 7.34043 13.7578 7.34043 13.7578C7.34043 13.215 7.75124 12.7751 8.25799 12.7751C8.76474 12.7751 9.17555 13.215 9.17555 13.7578C9.17555 13.7578 9.17555 13.7578 9.17555 13.7578L18.3512 13.7578L18.3512 11.7929C17.2125 10.8781 16.516 9.43442 16.516 7.8616C16.516 6.28878 17.2125 4.84509 18.3512 3.93027L18.3512 1.96539L9.17555 1.96539L9.17555 1.96554C9.17555 2.50827 8.76474 2.94824 8.25799 2.94824C7.75124 2.94824 7.34043 2.50827 7.34043 1.96554L7.34043 1.96539L1.83511 1.96539L1.83511 3.93027C2.9738 4.84509 3.67022 6.28878 3.67022 7.8616ZM8.25799 3.93108C7.75124 3.93108 7.34043 4.37105 7.34043 4.91378C7.34043 5.45651 7.75124 5.89648 8.25799 5.89648C8.76474 5.89648 9.17555 5.45651 9.17555 4.91378C9.17555 4.37105 8.76474 3.93108 8.25799 3.93108ZM7.34043 7.86178C7.34043 7.31905 7.75124 6.87908 8.25799 6.87908C8.76474 6.87908 9.17555 7.31905 9.17555 7.86178C9.17555 8.40451 8.76474 8.84448 8.25799 8.84448C7.75124 8.84448 7.34043 8.40451 7.34043 7.86178ZM8.25799 9.82708C7.75124 9.82708 7.34043 10.267 7.34043 10.8098C7.34043 11.3525 7.75124 11.7925 8.25799 11.7925C8.76474 11.7925 9.17555 11.3525 9.17555 10.8098C9.17555 10.267 8.76474 9.82708 8.25799 9.82708Z" fill="#111111"/>
<rect x="11.5532" y="8.20752" width="12.4469" height="11.7924" rx="5.89621" fill="#111111"/>
<path fill-rule="evenodd" clip-rule="evenodd" d="M17.9761 18.0345C15.949 18.0345 14.3058 16.2746 14.3058 14.1037C14.3058 11.9327 15.949 10.1729 17.9761 10.1729C20.0031 10.1729 21.6463 11.9327 21.6463 14.1037C21.6463 16.2746 20.0031 18.0345 17.9761 18.0345ZM17.976 17.3197C19.6345 17.3197 20.9789 15.8798 20.9789 14.1036C20.9789 12.3274 19.6345 10.8875 17.976 10.8875C16.3175 10.8875 14.9731 12.3274 14.9731 14.1036C14.9731 15.8798 16.3175 17.3197 17.976 17.3197ZM19.0746 12.7788L17.3086 14.6702L16.5436 13.8508L16.0717 14.3562L17.3086 15.6809L19.5465 13.2842L19.0746 12.7788Z" fill="white"/>
</svg>
