<svg width="18" height="18" viewBox="0 0 18 18" fill="none" xmlns="http://www.w3.org/2000/svg">
<path fill-rule="evenodd" clip-rule="evenodd" d="M1.52391 0L0.386172 1.18874L3.65628 4.60542C3.35164 4.86921 3.05016 5.15249 2.752 5.45375C2.08489 6.1278 1.48136 6.84741 0.950072 7.56733C0.629476 8.00175 0.401856 8.34348 0.277231 8.54707L0 8.99996L0.277231 9.45286C0.401856 9.65645 0.629476 9.99818 0.950072 10.4326C1.48136 11.1525 2.08489 11.8721 2.752 12.5462C4.70743 14.5219 6.80568 15.7245 8.99999 15.7245C10.3845 15.7245 11.7307 15.2458 13.027 14.3962L16.4762 18L17.614 16.8113L1.52391 0ZM11.8517 13.1682L10.6347 11.8967C10.1556 12.1925 9.59678 12.3622 8.99999 12.3622C7.22273 12.3622 5.78198 10.8569 5.78198 8.99994C5.78198 8.3764 5.94444 7.7925 6.22754 7.29193L4.80029 5.80071C4.48862 6.06331 4.17844 6.35111 3.87052 6.66223C3.26376 7.2753 2.71071 7.93473 2.22427 8.59387C2.11921 8.73623 2.02213 8.87205 1.93338 8.99996C2.02213 9.12788 2.11921 9.2637 2.22427 9.40606C2.71071 10.0652 3.26376 10.7246 3.87052 11.3377C5.55471 13.0394 7.30646 14.0433 8.99999 14.0433C9.93979 14.0433 10.8975 13.7342 11.8517 13.1682ZM7.44549 8.56448C7.40994 8.70337 7.39099 8.84934 7.39099 8.99994C7.39099 9.9284 8.11136 10.6811 8.99999 10.6811C9.14413 10.6811 9.28384 10.6613 9.41677 10.6241L7.44549 8.56448ZM15.5148 12.2705L14.3771 11.0818C14.8873 10.5429 15.3562 9.97437 15.7756 9.40604C15.8807 9.26369 15.9778 9.12786 16.0665 8.99995C15.9778 8.87203 15.8807 8.73621 15.7756 8.59385C15.2892 7.93472 14.7361 7.27528 14.1294 6.66221C12.4452 4.96051 10.6935 3.95657 8.99991 3.95657C8.57972 3.95657 8.15594 4.01837 7.73051 4.1373L6.45781 2.80755C7.28841 2.46152 8.13673 2.27544 8.99991 2.27544C11.1942 2.27544 13.2925 3.47797 15.2479 5.45374C15.915 6.12778 16.5185 6.8474 17.0498 7.56731C17.3704 8.00173 17.598 8.34346 17.7227 8.54705L17.9999 8.99995L17.7227 9.45284C17.598 9.65643 17.3704 9.99817 17.0498 10.4326C16.5903 11.0552 16.0768 11.6776 15.5148 12.2705Z" fill="#111111" fill-opacity="0.65"/>
</svg>
