<svg width="300" height="80" viewBox="0 0 300 80" fill="none" xmlns="http://www.w3.org/2000/svg">
<rect width="300" height="80" fill="#EB402E"/>
<path d="M51.489 26.6704C51.7461 22.3171 54.9279 18.9054 58.8889 18.6896C64.6248 18.377 72.8229 18 79 18C85.1771 18 93.3752 18.377 99.1111 18.6896C103.072 18.9054 106.254 22.3171 106.511 26.6704C106.757 30.8412 107 35.9732 107 40C107 44.0268 106.757 49.1588 106.511 53.3296C106.254 57.6829 103.072 61.0946 99.1111 61.3104C93.3752 61.623 85.1771 62 79 62C72.8229 62 64.6248 61.623 58.8889 61.3104C54.9279 61.0946 51.7461 57.6829 51.489 53.3296C51.2427 49.1588 51 44.0268 51 40C51 35.9732 51.2427 30.8412 51.489 26.6704Z" fill="white"/>
<path d="M71.5332 29.4785V50.522L91.1332 40.0003L71.5332 29.4785Z" fill="#EB402E"/>
<path d="M134.578 21.348H136.483C136.425 19.2514 134.572 17.7301 131.913 17.7301C129.286 17.7301 127.272 19.2322 127.272 21.4886C127.272 23.3104 128.576 24.3778 130.679 24.9467L132.226 25.3686C133.626 25.7393 134.706 26.1996 134.706 27.3629C134.706 28.6413 133.485 29.4851 131.804 29.4851C130.283 29.4851 129.017 28.8075 128.902 27.3821H126.92C127.048 29.7536 128.883 31.2173 131.817 31.2173C134.891 31.2173 136.662 29.6001 136.662 27.3821C136.662 25.0234 134.559 24.1094 132.897 23.7003L131.619 23.3679C130.596 23.1058 129.234 22.6264 129.241 21.3736C129.241 20.2614 130.257 19.4368 131.868 19.4368C133.37 19.4368 134.438 20.1399 134.578 21.348ZM145.088 26.9283C145.095 28.5966 143.855 29.3892 142.781 29.3892C141.598 29.3892 140.78 28.5327 140.78 27.1967V21.1818H138.869V27.4268C138.869 29.8622 140.205 31.1278 142.09 31.1278C143.567 31.1278 144.57 30.348 145.024 29.2997H145.127V31H147.006V21.1818H145.088V26.9283ZM149.727 31H151.594V29.4723H151.754C152.099 30.0987 152.802 31.1918 154.592 31.1918C156.969 31.1918 158.695 29.2869 158.695 26.1101C158.695 22.9268 156.944 21.054 154.572 21.054C152.751 21.054 152.092 22.1662 151.754 22.7734H151.638V17.9091H149.727V31ZM151.6 26.0909C151.6 24.0391 152.495 22.6776 154.163 22.6776C155.896 22.6776 156.765 24.1413 156.765 26.0909C156.765 28.0597 155.87 29.5618 154.163 29.5618C152.521 29.5618 151.6 28.1555 151.6 26.0909ZM168.199 23.5788C167.802 22.0511 166.607 21.054 164.485 21.054C162.267 21.054 160.694 22.2237 160.694 23.9624C160.694 25.3558 161.538 26.2827 163.379 26.6918L165.041 27.0561C165.987 27.267 166.428 27.6889 166.428 28.3026C166.428 29.0632 165.616 29.6577 164.363 29.6577C163.219 29.6577 162.484 29.1655 162.254 28.2003L160.407 28.4815C160.726 30.2202 162.171 31.1982 164.376 31.1982C166.748 31.1982 168.39 29.9389 168.39 28.1619C168.39 26.7749 167.508 25.9183 165.706 25.5028L164.146 25.1449C163.066 24.8892 162.599 24.5249 162.606 23.8601C162.599 23.1058 163.417 22.5689 164.504 22.5689C165.693 22.5689 166.243 23.2273 166.466 23.8857L168.199 23.5788ZM174.627 31.1982C176.948 31.1982 178.45 29.8047 178.661 27.8935H176.801C176.558 28.9545 175.733 29.581 174.64 29.581C173.023 29.581 171.981 28.2322 171.981 26.0909C171.981 23.9879 173.042 22.6648 174.64 22.6648C175.855 22.6648 176.596 23.4318 176.801 24.3523H178.661C178.456 22.3707 176.839 21.054 174.608 21.054C171.841 21.054 170.051 23.1378 170.051 26.1357C170.051 29.0952 171.777 31.1982 174.627 31.1982ZM180.705 31H182.616V25.0043C182.616 23.7195 183.607 22.7926 184.962 22.7926C185.358 22.7926 185.806 22.8629 185.959 22.9077V21.0795C185.767 21.054 185.39 21.0348 185.147 21.0348C183.997 21.0348 183.012 21.6868 182.654 22.7415H182.552V21.1818H180.705V31ZM187.613 31H189.524V21.1818H187.613V31ZM188.578 19.6669C189.237 19.6669 189.786 19.1555 189.786 18.5291C189.786 17.9027 189.237 17.3849 188.578 17.3849C187.913 17.3849 187.37 17.9027 187.37 18.5291C187.37 19.1555 187.913 19.6669 188.578 19.6669ZM192.249 31H194.115V29.4723H194.275C194.62 30.0987 195.323 31.1918 197.113 31.1918C199.491 31.1918 201.217 29.2869 201.217 26.1101C201.217 22.9268 199.465 21.054 197.094 21.054C195.272 21.054 194.614 22.1662 194.275 22.7734H194.16V17.9091H192.249V31ZM194.122 26.0909C194.122 24.0391 195.017 22.6776 196.685 22.6776C198.417 22.6776 199.286 24.1413 199.286 26.0909C199.286 28.0597 198.392 29.5618 196.685 29.5618C195.042 29.5618 194.122 28.1555 194.122 26.0909ZM207.594 31.1982C209.736 31.1982 211.251 30.1435 211.685 28.5455L209.876 28.2195C209.531 29.1463 208.7 29.6193 207.614 29.6193C205.977 29.6193 204.878 28.5582 204.827 26.6662H211.807V25.9886C211.807 22.4411 209.685 21.054 207.46 21.054C204.724 21.054 202.922 23.1378 202.922 26.1548C202.922 29.2038 204.699 31.1982 207.594 31.1982ZM204.833 25.2344C204.91 23.8409 205.92 22.6328 207.473 22.6328C208.956 22.6328 209.928 23.7322 209.934 25.2344H204.833Z" fill="white"/>
<path d="M126.618 40.1818L134.576 54.2869V62H139.157V54.2869L147.115 40.1818H141.948L136.973 49.5781H136.76L131.785 40.1818H126.618ZM153.544 62.3196C158.509 62.3196 161.598 58.9212 161.598 53.8821C161.598 48.8111 158.509 45.4233 153.544 45.4233C148.58 45.4233 145.49 48.8111 145.49 53.8821C145.49 58.9212 148.58 62.3196 153.544 62.3196ZM153.566 58.804C151.275 58.804 150.103 56.7053 150.103 53.8501C150.103 50.995 151.275 48.8857 153.566 48.8857C155.814 48.8857 156.985 50.995 156.985 53.8501C156.985 56.7053 155.814 58.804 153.566 58.804ZM175.043 55.0327C175.054 57.2273 173.551 58.3778 171.922 58.3778C170.206 58.3778 169.098 57.174 169.088 55.2457V45.6364H164.549V56.0554C164.56 59.88 166.797 62.2131 170.089 62.2131C172.55 62.2131 174.319 60.9453 175.054 59.0277H175.224V62H179.581V45.6364H175.043V55.0327ZM191.915 45.6364H188.836V41.7159H184.298V45.6364H182.061V49.0455H184.298V57.5682C184.277 60.7749 186.461 62.3622 189.753 62.2237C190.925 62.1811 191.756 61.9467 192.214 61.7976L191.5 58.4205C191.276 58.4631 190.797 58.5696 190.371 58.5696C189.465 58.5696 188.836 58.2287 188.836 56.9716V49.0455H191.915V45.6364ZM205.365 55.0327C205.376 57.2273 203.874 58.3778 202.244 58.3778C200.529 58.3778 199.421 57.174 199.41 55.2457V45.6364H194.872V56.0554C194.882 59.88 197.119 62.2131 200.411 62.2131C202.872 62.2131 204.641 60.9453 205.376 59.0277H205.546V62H209.904V45.6364H205.365V55.0327ZM213.619 62H218.093V59.3793H218.296C218.924 60.7429 220.299 62.2663 222.941 62.2663C226.669 62.2663 229.578 59.3153 229.578 53.8395C229.578 48.2145 226.542 45.4233 222.951 45.4233C220.213 45.4233 218.903 47.0533 218.296 48.3849H218.157V40.1818H213.619V62ZM218.061 53.8182C218.061 50.8991 219.297 49.0348 221.502 49.0348C223.75 49.0348 224.944 50.9844 224.944 53.8182C224.944 56.6733 223.729 58.6548 221.502 58.6548C219.319 58.6548 218.061 56.7372 218.061 53.8182ZM240.063 62.3196C244.112 62.3196 246.839 60.3487 247.478 57.3125L243.281 57.0355C242.823 58.282 241.651 58.9318 240.138 58.9318C237.869 58.9318 236.431 57.4297 236.431 54.9901V54.9794H247.574V53.733C247.574 48.1719 244.208 45.4233 239.882 45.4233C235.067 45.4233 231.945 48.843 231.945 53.8928C231.945 59.081 235.024 62.3196 240.063 62.3196ZM236.431 52.1669C236.526 50.3026 237.943 48.8111 239.957 48.8111C241.928 48.8111 243.291 50.2173 243.302 52.1669H236.431Z" fill="white"/>
</svg>
