<svg width="300" height="80" viewBox="0 0 300 80" fill="none" xmlns="http://www.w3.org/2000/svg">
<rect width="300" height="80" fill="#506DAC"/>
<rect x="45" y="17" width="46" height="46" rx="7" fill="white"/>
<path d="M77.6895 47.3183L78.726 40.4593H72.242V36.0103C72.242 34.1334 73.1461 32.3028 76.0503 32.3028H79V26.4634C79 26.4634 76.3242 26 73.7671 26C68.4247 26 64.9361 29.2858 64.9361 35.2317V40.4593H59V47.3183H64.9361V64.7127C66.1278 64.9027 67.3471 65 68.5891 65C69.8311 65 71.0503 64.9027 72.242 64.7127V47.3183H77.6895Z" fill="#506DAC"/>
<path d="M112.438 31H120.345V29.2997H114.413V17.9091H112.438V31ZM122.445 31H124.356V21.1818H122.445V31ZM123.41 19.6669C124.069 19.6669 124.618 19.1555 124.618 18.5291C124.618 17.9027 124.069 17.3849 123.41 17.3849C122.745 17.3849 122.202 17.9027 122.202 18.5291C122.202 19.1555 122.745 19.6669 123.41 19.6669ZM126.927 31H128.839V27.5163L129.791 26.5639L133.128 31H135.474L131.229 25.3942L135.205 21.1818H132.917L129.005 25.3366H128.839V17.9091H126.927V31ZM140.774 31.1982C142.915 31.1982 144.43 30.1435 144.865 28.5455L143.056 28.2195C142.711 29.1463 141.88 29.6193 140.793 29.6193C139.157 29.6193 138.058 28.5582 138.006 26.6662H144.987V25.9886C144.987 22.4411 142.864 21.054 140.64 21.054C137.904 21.054 136.102 23.1378 136.102 26.1548C136.102 29.2038 137.879 31.1982 140.774 31.1982ZM138.013 25.2344C138.089 23.8409 139.099 22.6328 140.653 22.6328C142.136 22.6328 143.107 23.7322 143.114 25.2344H138.013ZM160.442 17.9091V26.3594C160.442 28.1364 159.215 29.4148 157.221 29.4148C155.233 29.4148 153.999 28.1364 153.999 26.3594V17.9091H152.024V26.5192C152.024 29.2678 154.082 31.2173 157.221 31.2173C160.359 31.2173 162.424 29.2678 162.424 26.5192V17.9091H160.442ZM172.499 23.5788C172.103 22.0511 170.908 21.054 168.786 21.054C166.568 21.054 164.995 22.2237 164.995 23.9624C164.995 25.3558 165.839 26.2827 167.68 26.6918L169.342 27.0561C170.288 27.267 170.729 27.6889 170.729 28.3026C170.729 29.0632 169.917 29.6577 168.664 29.6577C167.52 29.6577 166.785 29.1655 166.555 28.2003L164.708 28.4815C165.027 30.2202 166.472 31.1982 168.677 31.1982C171.048 31.1982 172.691 29.9389 172.691 28.1619C172.691 26.7749 171.809 25.9183 170.007 25.5028L168.447 25.1449C167.367 24.8892 166.9 24.5249 166.906 23.8601C166.9 23.1058 167.718 22.5689 168.805 22.5689C169.994 22.5689 170.544 23.2273 170.767 23.8857L172.499 23.5788ZM191.081 24.4545C191.081 20.2678 188.575 17.7301 185.188 17.7301C181.787 17.7301 179.288 20.2678 179.288 24.4545C179.288 28.6349 181.787 31.179 185.188 31.179C188.575 31.179 191.081 28.6413 191.081 24.4545ZM189.125 24.4545C189.125 27.6442 187.438 29.3764 185.188 29.3764C182.931 29.3764 181.25 27.6442 181.25 24.4545C181.25 21.2649 182.931 19.5327 185.188 19.5327C187.438 19.5327 189.125 21.2649 189.125 24.4545ZM195.301 25.1705C195.301 23.6044 196.26 22.7095 197.59 22.7095C198.887 22.7095 199.674 23.5597 199.674 24.9851V31H201.585V24.755C201.585 22.326 200.249 21.054 198.242 21.054C196.765 21.054 195.8 21.7379 195.346 22.7798H195.225V21.1818H193.39V31H195.301V25.1705Z" fill="white"/>
<path d="M112.896 62H117.509V52.9872H126.384V49.1839H117.509V43.9851H127.342V40.1818H112.896V62ZM134.821 62.3089C137.239 62.3089 138.805 61.2543 139.604 59.7308H139.732V62H144.036V50.9631C144.036 47.0639 140.734 45.4233 137.09 45.4233C133.17 45.4233 130.592 47.2983 129.963 50.2812L134.161 50.6222C134.469 49.5355 135.439 48.7365 137.069 48.7365C138.614 48.7365 139.498 49.5142 139.498 50.8565V50.9205C139.498 51.9751 138.379 52.1136 135.535 52.3906C132.296 52.6889 129.388 53.7756 129.388 57.4297C129.388 60.6683 131.7 62.3089 134.821 62.3089ZM136.121 59.1768C134.725 59.1768 133.724 58.527 133.724 57.2805C133.724 56.0021 134.778 55.3736 136.376 55.1499C137.367 55.0114 138.987 54.777 139.53 54.4148V56.1513C139.53 57.8665 138.113 59.1768 136.121 59.1768ZM154.951 62.3196C159.308 62.3196 162.046 59.7628 162.259 56.0021H157.976C157.71 57.7493 156.559 58.7294 155.004 58.7294C152.884 58.7294 151.51 56.9503 151.51 53.8182C151.51 50.7287 152.895 48.9602 155.004 48.9602C156.666 48.9602 157.731 50.0575 157.976 51.6875H162.259C162.067 47.9055 159.201 45.4233 154.929 45.4233C149.965 45.4233 146.897 48.8643 146.897 53.8821C146.897 58.8572 149.912 62.3196 154.951 62.3196ZM172.622 62.3196C176.67 62.3196 179.398 60.3487 180.037 57.3125L175.839 57.0355C175.381 58.282 174.209 58.9318 172.697 58.9318C170.427 58.9318 168.989 57.4297 168.989 54.9901V54.9794H180.133V53.733C180.133 48.1719 176.766 45.4233 172.441 45.4233C167.626 45.4233 164.504 48.843 164.504 53.8928C164.504 59.081 167.583 62.3196 172.622 62.3196ZM168.989 52.1669C169.085 50.3026 170.502 48.8111 172.515 48.8111C174.486 48.8111 175.85 50.2173 175.861 52.1669H168.989ZM183.18 62H187.654V59.3793H187.856C188.485 60.7429 189.859 62.2663 192.501 62.2663C196.23 62.2663 199.138 59.3153 199.138 53.8395C199.138 48.2145 196.102 45.4233 192.512 45.4233C189.774 45.4233 188.464 47.0533 187.856 48.3849H187.718V40.1818H183.18V62ZM187.622 53.8182C187.622 50.8991 188.858 49.0348 191.063 49.0348C193.311 49.0348 194.504 50.9844 194.504 53.8182C194.504 56.6733 193.29 58.6548 191.063 58.6548C188.879 58.6548 187.622 56.7372 187.622 53.8182ZM209.56 62.3196C214.525 62.3196 217.614 58.9212 217.614 53.8821C217.614 48.8111 214.525 45.4233 209.56 45.4233C204.596 45.4233 201.506 48.8111 201.506 53.8821C201.506 58.9212 204.596 62.3196 209.56 62.3196ZM209.581 58.804C207.291 58.804 206.119 56.7053 206.119 53.8501C206.119 50.995 207.291 48.8857 209.581 48.8857C211.829 48.8857 213.001 50.995 213.001 53.8501C213.001 56.7053 211.829 58.804 209.581 58.804ZM227.958 62.3196C232.923 62.3196 236.012 58.9212 236.012 53.8821C236.012 48.8111 232.923 45.4233 227.958 45.4233C222.994 45.4233 219.904 48.8111 219.904 53.8821C219.904 58.9212 222.994 62.3196 227.958 62.3196ZM227.98 58.804C225.689 58.804 224.517 56.7053 224.517 53.8501C224.517 50.995 225.689 48.8857 227.98 48.8857C230.228 48.8857 231.4 50.995 231.4 53.8501C231.4 56.7053 230.228 58.804 227.98 58.804ZM238.963 62H243.502V56.8011L244.727 55.4055L249.191 62H254.507L248.125 52.7209L254.198 45.6364H248.988L243.747 51.8473H243.502V40.1818H238.963V62Z" fill="white"/>
</svg>
