<svg width="18" height="18" viewBox="0 0 18 18" fill="none" xmlns="http://www.w3.org/2000/svg">
<path d="M12.4092 11.9036L12.4091 11.9036L12.4133 11.9168L13.8326 16.3684L10.1779 13.6897C9.82668 13.4158 9.3904 13.307 9 13.307C8.6096 13.307 8.17332 13.4158 7.82211 13.6897L4.16743 16.3684L5.5867 11.9168L5.58682 11.9169L5.59078 11.9036C5.71495 11.4877 5.64283 11.0531 5.51128 10.7167C5.38142 10.3846 5.14848 10.0319 4.80364 9.80385L0.9467 7.01698H5.582C6.02029 7.01698 6.41486 6.83488 6.70665 6.60652C6.99088 6.38409 7.24401 6.06634 7.36446 5.68943L9.06341 1.19931L10.5269 5.71257C10.7534 6.45394 11.5114 7.01698 12.3001 7.01698H17.0533L13.1964 9.80385C12.8515 10.0319 12.6186 10.3846 12.4887 10.7167C12.3572 11.0531 12.285 11.4877 12.4092 11.9036ZM4.09203 16.6049L4.09205 16.6048L4.09203 16.6049Z" stroke="#111111" stroke-opacity="0.5" stroke-width="1.5"/>
</svg>
